<?xml version="1.0" encoding="UTF-8" standalone="no"?>
<!DOCTYPE svg PUBLIC "-//W3C//DTD SVG 1.1//EN"
 "http://www.w3.org/Graphics/SVG/1.1/DTD/svg11.dtd">
<!-- Generated by graphviz version 2.26.3 (20100126.1600)
 -->
<!-- Title: _anonymous_0 Pages: 1 -->
<svg width="833pt" height="806pt"
 viewBox="0.00 0.00 833.12 805.98" xmlns="http://www.w3.org/2000/svg" xmlns:xlink="http://www.w3.org/1999/xlink">
<g id="graph1" class="graph" transform="scale(1 1) rotate(0) translate(4 801.978)">
<title>_anonymous_0</title>
<polygon fill="white" stroke="white" points="-4,5 -4,-801.978 830.125,-801.978 830.125,5 -4,5"/>
<!-- dialogue\nlong -->
<g id="node1" class="node"><title>dialogue\nlong</title>
<ellipse fill="none" stroke="black" cx="99.5" cy="-742.978" rx="51.8276" ry="31.1127"/>
<text text-anchor="middle" x="99.5" y="-748.378" font-family="Times Roman,serif" font-size="14.00">dialogue</text>
<text text-anchor="middle" x="99.5" y="-730.378" font-family="Times Roman,serif" font-size="14.00">long</text>
</g>
<!-- historique -->
<g id="node3" class="node"><title>historique</title>
<ellipse fill="none" stroke="black" cx="143.521" cy="-685.655" rx="60.8112" ry="18.3848"/>
<text text-anchor="middle" x="143.521" y="-682.055" font-family="Times Roman,serif" font-size="14.00">historique</text>
</g>
<!-- dialogue\nlong&#45;&gt;historique -->
<g id="edge2" class="edge"><title>dialogue\nlong&#45;&gt;historique</title>
<path fill="none" stroke="black" d="M121.252,-714.652C121.967,-713.721 122.682,-712.79 123.395,-711.862"/>
<polygon fill="black" stroke="black" points="126.34,-713.774 129.654,-703.711 120.788,-709.51 126.34,-713.774"/>
</g>
<!-- délitement -->
<g id="node4" class="node"><title>délitement</title>
<ellipse fill="none" stroke="black" cx="167.625" cy="-617.5" rx="63.8479" ry="18.3848"/>
<text text-anchor="middle" x="167.625" y="-613.9" font-family="Times Roman,serif" font-size="14.00">délitement</text>
</g>
<!-- historique&#45;&gt;délitement -->
<g id="edge3" class="edge"><title>historique&#45;&gt;délitement</title>
<path fill="none" stroke="black" d="M150.107,-667.031C152.445,-660.42 155.132,-652.823 157.688,-645.598"/>
<polygon fill="black" stroke="black" points="161.012,-646.696 161.046,-636.101 154.412,-644.362 161.012,-646.696"/>
</g>
<!-- publié\nou\nnon -->
<g id="node5" class="node"><title>publié\nou\nnon</title>
<ellipse fill="none" stroke="black" cx="479" cy="-597" rx="41.0122" ry="43.8406"/>
<text text-anchor="middle" x="479" y="-611.4" font-family="Times Roman,serif" font-size="14.00">publié</text>
<text text-anchor="middle" x="479" y="-593.4" font-family="Times Roman,serif" font-size="14.00">ou</text>
<text text-anchor="middle" x="479" y="-575.4" font-family="Times Roman,serif" font-size="14.00">non</text>
</g>
<!-- nécessite\nanalyse -->
<g id="node6" class="node"><title>nécessite\nanalyse</title>
<ellipse fill="none" stroke="black" cx="103.5" cy="-288.887" rx="56.0679" ry="31.1127"/>
<text text-anchor="middle" x="103.5" y="-294.287" font-family="Times Roman,serif" font-size="14.00">nécessite</text>
<text text-anchor="middle" x="103.5" y="-276.287" font-family="Times Roman,serif" font-size="14.00">analyse</text>
</g>
<!-- extérieur -->
<g id="node8" class="node"><title>extérieur</title>
<ellipse fill="none" stroke="black" cx="184.738" cy="-299.301" rx="56.0679" ry="18.3848"/>
<text text-anchor="middle" x="184.738" y="-295.701" font-family="Times Roman,serif" font-size="14.00">extérieur</text>
</g>
<!-- nécessite\nanalyse&#45;&gt;extérieur -->
<g id="edge5" class="edge"><title>nécessite\nanalyse&#45;&gt;extérieur</title>
<path fill="none" stroke="black" d="M158.138,-295.891C158.195,-295.898 158.253,-295.905 158.31,-295.913"/>
<polygon fill="black" stroke="black" points="148.116,-298.13 158.482,-295.935 149.01,-291.187 148.116,-298.13"/>
</g>
<!-- partenaire -->
<g id="node9" class="node"><title>partenaire</title>
<ellipse fill="none" stroke="black" cx="265.845" cy="-298.787" rx="62.9325" ry="18.3848"/>
<text text-anchor="middle" x="265.845" y="-295.187" font-family="Times Roman,serif" font-size="14.00">partenaire</text>
</g>
<!-- extérieur&#45;&gt;partenaire -->
<g id="edge6" class="edge"><title>extérieur&#45;&gt;partenaire</title>
<path fill="none" stroke="black" d="M241.07,-298.944C241.124,-298.943 241.178,-298.943 241.232,-298.943"/>
<polygon fill="black" stroke="black" points="231.418,-302.511 241.394,-298.942 231.369,-295.511 231.418,-302.511"/>
</g>
<!-- thématique -->
<g id="node22" class="node"><title>thématique</title>
<ellipse fill="none" stroke="black" cx="218.156" cy="-229.425" rx="67.8823" ry="18.3848"/>
<text text-anchor="middle" x="218.156" y="-225.825" font-family="Times Roman,serif" font-size="14.00">thématique</text>
</g>
<!-- partenaire&#45;&gt;thématique -->
<g id="edge16" class="edge"><title>partenaire&#45;&gt;thématique</title>
<path fill="none" stroke="black" d="M253.315,-280.563C248.208,-273.135 242.2,-264.395 236.608,-256.263"/>
<polygon fill="black" stroke="black" points="239.317,-254.025 230.767,-247.768 233.549,-257.991 239.317,-254.025"/>
</g>
<!-- artiste -->
<g id="node53" class="node"><title>artiste</title>
<ellipse fill="none" stroke="black" cx="332.118" cy="-307.637" rx="43.8406" ry="18.3848"/>
<text text-anchor="middle" x="332.118" y="-304.037" font-family="Times Roman,serif" font-size="14.00">artiste</text>
</g>
<!-- partenaire&#45;&gt;artiste -->
<g id="edge43" class="edge"><title>partenaire&#45;&gt;artiste</title>
<path fill="none" stroke="black" d="M323.454,-306.48C323.536,-306.491 323.618,-306.502 323.699,-306.513"/>
<polygon fill="black" stroke="black" points="313.565,-308.687 323.942,-306.545 314.494,-301.749 313.565,-308.687"/>
</g>
<!-- signature -->
<g id="node10" class="node"><title>signature</title>
<ellipse fill="none" stroke="black" cx="703" cy="-375.139" rx="57.9828" ry="18.3848"/>
<text text-anchor="middle" x="703" y="-371.539" font-family="Times Roman,serif" font-size="14.00">signature</text>
</g>
<!-- header -->
<g id="node12" class="node"><title>header</title>
<ellipse fill="none" stroke="black" cx="774.21" cy="-364.5" rx="45.9619" ry="18.3848"/>
<text text-anchor="middle" x="774.21" y="-360.9" font-family="Times Roman,serif" font-size="14.00">header</text>
</g>
<!-- signature&#45;&gt;header -->
<g id="edge8" class="edge"><title>signature&#45;&gt;header</title>
<path fill="none" stroke="black" d="M755.871,-367.24C755.953,-367.228 756.035,-367.215 756.117,-367.203"/>
<polygon fill="black" stroke="black" points="746.989,-372.109 756.361,-367.167 745.952,-365.186 746.989,-372.109"/>
</g>
<!-- interne -->
<g id="node13" class="node"><title>interne</title>
<ellipse fill="none" stroke="black" cx="710.957" cy="-100.206" rx="46.8775" ry="18.3848"/>
<text text-anchor="middle" x="710.957" y="-96.6063" font-family="Times Roman,serif" font-size="14.00">interne</text>
</g>
<!-- externe -->
<g id="node15" class="node"><title>externe</title>
<ellipse fill="none" stroke="black" cx="754.852" cy="-157.625" rx="50.2046" ry="18.3848"/>
<text text-anchor="middle" x="754.852" y="-154.025" font-family="Times Roman,serif" font-size="14.00">externe</text>
</g>
<!-- interne&#45;&gt;externe -->
<g id="edge10" class="edge"><title>interne&#45;&gt;externe</title>
<path fill="none" stroke="black" d="M724.605,-118.059C727.877,-122.339 731.437,-126.996 734.929,-131.563"/>
<polygon fill="black" stroke="black" points="732.207,-133.767 741.061,-139.586 737.769,-129.516 732.207,-133.767"/>
</g>
<!-- newsletter\ntierce -->
<g id="node16" class="node"><title>newsletter\ntierce</title>
<ellipse fill="none" stroke="black" cx="319" cy="-492" rx="65.0538" ry="31.1127"/>
<text text-anchor="middle" x="319" y="-497.4" font-family="Times Roman,serif" font-size="14.00">newsletter</text>
<text text-anchor="middle" x="319" y="-479.4" font-family="Times Roman,serif" font-size="14.00">tierce</text>
</g>
<!-- un\njournaliste\nécrit,\ndistance -->
<g id="node18" class="node"><title>un\njournaliste\nécrit,\ndistance</title>
<ellipse fill="none" stroke="black" cx="335.071" cy="-562.469" rx="62.9325" ry="56.5685"/>
<text text-anchor="middle" x="335.071" y="-585.869" font-family="Times Roman,serif" font-size="14.00">un</text>
<text text-anchor="middle" x="335.071" y="-567.869" font-family="Times Roman,serif" font-size="14.00">journaliste</text>
<text text-anchor="middle" x="335.071" y="-549.869" font-family="Times Roman,serif" font-size="14.00">écrit,</text>
<text text-anchor="middle" x="335.071" y="-531.869" font-family="Times Roman,serif" font-size="14.00">distance</text>
</g>
<!-- newsletter\ntierce&#45;&gt;un\njournaliste\nécrit,\ndistance -->
<g id="edge12" class="edge"><title>newsletter\ntierce&#45;&gt;un\njournaliste\nécrit,\ndistance</title>
<path fill="none" stroke="black" d="M326.096,-523.114C326.113,-523.188 326.129,-523.261 326.146,-523.335"/>
<polygon fill="black" stroke="black" points="320.557,-514.586 326.197,-523.557 327.382,-513.027 320.557,-514.586"/>
</g>
<!-- html -->
<g id="node19" class="node"><title>html</title>
<ellipse fill="none" stroke="black" cx="333.467" cy="-634.689" rx="33.9411" ry="18.3848"/>
<text text-anchor="middle" x="333.467" y="-631.089" font-family="Times Roman,serif" font-size="14.00">html</text>
</g>
<!-- un\njournaliste\nécrit,\ndistance&#45;&gt;html -->
<g id="edge13" class="edge"><title>un\njournaliste\nécrit,\ndistance&#45;&gt;html</title>
<path fill="none" stroke="black" d="M333.815,-619.018C333.814,-619.09 333.812,-619.161 333.811,-619.232"/>
<polygon fill="black" stroke="black" points="330.533,-609.368 333.806,-619.445 337.532,-609.527 330.533,-609.368"/>
</g>
<!-- pdf\nou\nlien -->
<g id="node20" class="node"><title>pdf\nou\nlien</title>
<ellipse fill="none" stroke="black" cx="324.965" cy="-706.297" rx="28.9914" ry="43.8406"/>
<text text-anchor="middle" x="324.965" y="-720.697" font-family="Times Roman,serif" font-size="14.00">pdf</text>
<text text-anchor="middle" x="324.965" y="-702.697" font-family="Times Roman,serif" font-size="14.00">ou</text>
<text text-anchor="middle" x="324.965" y="-684.697" font-family="Times Roman,serif" font-size="14.00">lien</text>
</g>
<!-- html&#45;&gt;pdf\nou\nlien -->
<g id="edge14" class="edge"><title>html&#45;&gt;pdf\nou\nlien</title>
<path fill="none" stroke="black" d="M331.234,-653.503C331.223,-653.597 331.211,-653.69 331.2,-653.784"/>
<polygon fill="black" stroke="black" points="327.815,-652.609 330.112,-662.952 334.766,-653.435 327.815,-652.609"/>
</g>
<!-- regard\nextérieur -->
<g id="node23" class="node"><title>regard\nextérieur</title>
<ellipse fill="none" stroke="black" cx="540.5" cy="-356.978" rx="56.0679" ry="31.1127"/>
<text text-anchor="middle" x="540.5" y="-362.378" font-family="Times Roman,serif" font-size="14.00">regard</text>
<text text-anchor="middle" x="540.5" y="-344.378" font-family="Times Roman,serif" font-size="14.00">extérieur</text>
</g>
<!-- feed&#45;back -->
<g id="node25" class="node"><title>feed&#45;back</title>
<ellipse fill="none" stroke="black" cx="584.521" cy="-299.655" rx="58.1882" ry="18.3848"/>
<text text-anchor="middle" x="584.521" y="-296.055" font-family="Times Roman,serif" font-size="14.00">feed&#45;back</text>
</g>
<!-- regard\nextérieur&#45;&gt;feed&#45;back -->
<g id="edge18" class="edge"><title>regard\nextérieur&#45;&gt;feed&#45;back</title>
<path fill="none" stroke="black" d="M562.51,-328.316C563.112,-327.532 563.714,-326.749 564.314,-325.967"/>
<polygon fill="black" stroke="black" points="567.277,-327.855 570.592,-317.792 561.726,-323.591 567.277,-327.855"/>
</g>
<!-- accord\nde\npublication\ndes\npartenaires -->
<g id="node26" class="node"><title>accord\nde\npublication\ndes\npartenaires</title>
<ellipse fill="none" stroke="black" cx="608.625" cy="-231.5" rx="67.1751" ry="69.2965"/>
<text text-anchor="middle" x="608.625" y="-263.9" font-family="Times Roman,serif" font-size="14.00">accord</text>
<text text-anchor="middle" x="608.625" y="-245.9" font-family="Times Roman,serif" font-size="14.00">de</text>
<text text-anchor="middle" x="608.625" y="-227.9" font-family="Times Roman,serif" font-size="14.00">publication</text>
<text text-anchor="middle" x="608.625" y="-209.9" font-family="Times Roman,serif" font-size="14.00">des</text>
<text text-anchor="middle" x="608.625" y="-191.9" font-family="Times Roman,serif" font-size="14.00">partenaires</text>
</g>
<!-- feed&#45;back&#45;&gt;accord\nde\npublication\ndes\npartenaires -->
<g id="edge19" class="edge"><title>feed&#45;back&#45;&gt;accord\nde\npublication\ndes\npartenaires</title>
<path fill="none" stroke="black" d="M591.107,-281.031C591.135,-280.952 591.163,-280.873 591.191,-280.794"/>
<polygon fill="black" stroke="black" points="591.238,-291.152 591.275,-280.556 584.638,-288.816 591.238,-291.152"/>
</g>
<!-- fiche\ntechnique -->
<g id="node27" class="node"><title>fiche\ntechnique</title>
<ellipse fill="none" stroke="black" cx="126.165" cy="-499.113" rx="60.1041" ry="31.1127"/>
<text text-anchor="middle" x="126.165" y="-504.513" font-family="Times Roman,serif" font-size="14.00">fiche</text>
<text text-anchor="middle" x="126.165" y="-486.513" font-family="Times Roman,serif" font-size="14.00">technique</text>
</g>
<!-- espace\npublic -->
<g id="node29" class="node"><title>espace\npublic</title>
<ellipse fill="none" stroke="black" cx="176.551" cy="-441.364" rx="44.0472" ry="31.1127"/>
<text text-anchor="middle" x="176.551" y="-446.764" font-family="Times Roman,serif" font-size="14.00">espace</text>
<text text-anchor="middle" x="176.551" y="-428.764" font-family="Times Roman,serif" font-size="14.00">public</text>
</g>
<!-- fiche\ntechnique&#45;&gt;espace\npublic -->
<g id="edge21" class="edge"><title>fiche\ntechnique&#45;&gt;espace\npublic</title>
<path fill="none" stroke="black" d="M151.062,-470.577C151.162,-470.463 151.261,-470.35 151.36,-470.236"/>
<polygon fill="black" stroke="black" points="149.503,-477.687 153.441,-467.851 144.229,-473.085 149.503,-477.687"/>
</g>
<!-- japon -->
<g id="node30" class="node"><title>japon</title>
<ellipse fill="none" stroke="black" cx="224.185" cy="-375.06" rx="38.1838" ry="18.3848"/>
<text text-anchor="middle" x="224.185" y="-371.46" font-family="Times Roman,serif" font-size="14.00">japon</text>
</g>
<!-- espace\npublic&#45;&gt;japon -->
<g id="edge22" class="edge"><title>espace\npublic&#45;&gt;japon</title>
<path fill="none" stroke="black" d="M196.476,-413.629C199.503,-409.415 202.617,-405.081 205.614,-400.909"/>
<polygon fill="black" stroke="black" points="208.545,-402.828 211.537,-392.665 202.86,-398.744 208.545,-402.828"/>
</g>
<!-- japon&#45;&gt;partenaire -->
<g id="edge23" class="edge"><title>japon&#45;&gt;partenaire</title>
<path fill="none" stroke="black" d="M234.058,-356.984C239.069,-347.81 245.262,-336.471 250.847,-326.246"/>
<polygon fill="black" stroke="black" points="254.032,-327.716 255.754,-317.262 247.888,-324.361 254.032,-327.716"/>
</g>
<!-- pdf\n+\ninfo\ndate\nlieu -->
<g id="node31" class="node"><title>pdf\n+\ninfo\ndate\nlieu</title>
<ellipse fill="none" stroke="black" cx="334.048" cy="-257.506" rx="33.234" ry="69.2965"/>
<text text-anchor="middle" x="334.048" y="-289.906" font-family="Times Roman,serif" font-size="14.00">pdf</text>
<text text-anchor="middle" x="334.048" y="-271.906" font-family="Times Roman,serif" font-size="14.00">+</text>
<text text-anchor="middle" x="334.048" y="-253.906" font-family="Times Roman,serif" font-size="14.00">info</text>
<text text-anchor="middle" x="334.048" y="-235.906" font-family="Times Roman,serif" font-size="14.00">date</text>
<text text-anchor="middle" x="334.048" y="-217.906" font-family="Times Roman,serif" font-size="14.00">lieu</text>
</g>
<!-- pdf\n+\ninfo\ndate\nlieu&#45;&gt;partenaire -->
<g id="edge25" class="edge"><title>pdf\n+\ninfo\ndate\nlieu&#45;&gt;partenaire</title>
<path fill="none" stroke="black" d="M301.944,-276.938C301.857,-276.99 301.771,-277.042 301.685,-277.095"/>
<polygon fill="black" stroke="black" points="300.415,-273.772 293.672,-281.944 304.039,-279.76 300.415,-273.772"/>
</g>
<!-- partenaires\npotentiels -->
<g id="node33" class="node"><title>partenaires\npotentiels</title>
<ellipse fill="none" stroke="black" cx="390" cy="-65.6391" rx="67.1751" ry="31.1127"/>
<text text-anchor="middle" x="390" y="-71.0391" font-family="Times Roman,serif" font-size="14.00">partenaires</text>
<text text-anchor="middle" x="390" y="-53.0391" font-family="Times Roman,serif" font-size="14.00">potentiels</text>
</g>
<!-- communauté\nd&#39;esprit -->
<g id="node35" class="node"><title>communauté\nd&#39;esprit</title>
<ellipse fill="none" stroke="black" cx="461.21" cy="-55" rx="75.1594" ry="31.1127"/>
<text text-anchor="middle" x="461.21" y="-60.4" font-family="Times Roman,serif" font-size="14.00">communauté</text>
<text text-anchor="middle" x="461.21" y="-42.4" font-family="Times Roman,serif" font-size="14.00">d&#39;esprit</text>
</g>
<!-- partenaires\npotentiels&#45;&gt;communauté\nd&#39;esprit -->
<g id="edge27" class="edge"><title>partenaires\npotentiels&#45;&gt;communauté\nd&#39;esprit</title>
<path fill="none" stroke="black" d="M453.857,-56.0985C453.928,-56.0879 453.998,-56.0774 454.068,-56.067"/>
<polygon fill="black" stroke="black" points="444.905,-60.9791 454.276,-56.0358 443.868,-54.0559 444.905,-60.9791"/>
</g>
<!-- diagramme -->
<g id="node36" class="node"><title>diagramme</title>
<ellipse fill="none" stroke="black" cx="619" cy="-619.978" rx="65.7609" ry="18.3848"/>
<text text-anchor="middle" x="619" y="-616.378" font-family="Times Roman,serif" font-size="14.00">diagramme</text>
</g>
<!-- cartographie -->
<g id="node38" class="node"><title>cartographie</title>
<ellipse fill="none" stroke="black" cx="663.021" cy="-562.655" rx="73.0388" ry="18.3848"/>
<text text-anchor="middle" x="663.021" y="-559.055" font-family="Times Roman,serif" font-size="14.00">cartographie</text>
</g>
<!-- diagramme&#45;&gt;cartographie -->
<g id="edge29" class="edge"><title>diagramme&#45;&gt;cartographie</title>
<path fill="none" stroke="black" d="M632.928,-601.84C636.06,-597.763 639.444,-593.355 642.775,-589.018"/>
<polygon fill="black" stroke="black" points="645.717,-590.934 649.032,-580.871 640.165,-586.67 645.717,-590.934"/>
</g>
<!-- orienté\nà partir\nd&#39;un point\nde vue -->
<g id="node39" class="node"><title>orienté\nà partir\nd&#39;un point\nde vue</title>
<ellipse fill="none" stroke="black" cx="687.125" cy="-494.5" rx="60.8112" ry="56.5685"/>
<text text-anchor="middle" x="687.125" y="-517.9" font-family="Times Roman,serif" font-size="14.00">orienté</text>
<text text-anchor="middle" x="687.125" y="-499.9" font-family="Times Roman,serif" font-size="14.00">à partir</text>
<text text-anchor="middle" x="687.125" y="-481.9" font-family="Times Roman,serif" font-size="14.00">d&#39;un point</text>
<text text-anchor="middle" x="687.125" y="-463.9" font-family="Times Roman,serif" font-size="14.00">de vue</text>
</g>
<!-- cartographie&#45;&gt;orienté\nà partir\nd&#39;un point\nde vue -->
<g id="edge30" class="edge"><title>cartographie&#45;&gt;orienté\nà partir\nd&#39;un point\nde vue</title>
<path fill="none" stroke="black" d="M669.607,-544.031C669.635,-543.952 669.663,-543.873 669.691,-543.794"/>
<polygon fill="black" stroke="black" points="669.738,-554.152 669.775,-543.556 663.138,-551.816 669.738,-554.152"/>
</g>
<!-- évènement -->
<g id="node40" class="node"><title>évènement</title>
<ellipse fill="none" stroke="black" cx="338.633" cy="-142.23" rx="67.1751" ry="18.3848"/>
<text text-anchor="middle" x="338.633" y="-138.63" font-family="Times Roman,serif" font-size="14.00">évènement</text>
</g>
<!-- agenda -->
<g id="node42" class="node"><title>agenda</title>
<ellipse fill="none" stroke="black" cx="296.845" cy="-213.033" rx="46.8775" ry="18.3848"/>
<text text-anchor="middle" x="296.845" y="-209.433" font-family="Times Roman,serif" font-size="14.00">agenda</text>
</g>
<!-- évènement&#45;&gt;agenda -->
<g id="edge32" class="edge"><title>évènement&#45;&gt;agenda</title>
<path fill="none" stroke="black" d="M327.653,-160.833C323.107,-168.535 317.746,-177.619 312.781,-186.032"/>
<polygon fill="black" stroke="black" points="309.675,-184.408 307.606,-194.799 315.703,-187.966 309.675,-184.408"/>
</g>
<!-- agenda&#45;&gt;partenaire -->
<g id="edge33" class="edge"><title>agenda&#45;&gt;partenaire</title>
<path fill="none" stroke="black" d="M290.118,-231.64C286.016,-242.99 280.69,-257.723 276.073,-270.495"/>
<polygon fill="black" stroke="black" points="272.667,-269.621 272.558,-280.216 279.25,-272.001 272.667,-269.621"/>
</g>
<!-- multilingue -->
<g id="node43" class="node"><title>multilingue</title>
<ellipse fill="none" stroke="black" cx="481.5" cy="-720.139" rx="65.9683" ry="18.3848"/>
<text text-anchor="middle" x="481.5" y="-716.539" font-family="Times Roman,serif" font-size="14.00">multilingue</text>
</g>
<!-- bilingue -->
<g id="node45" class="node"><title>bilingue</title>
<ellipse fill="none" stroke="black" cx="552.71" cy="-709.5" rx="50.2046" ry="18.3848"/>
<text text-anchor="middle" x="552.71" y="-705.9" font-family="Times Roman,serif" font-size="14.00">bilingue</text>
</g>
<!-- multilingue&#45;&gt;bilingue -->
<g id="edge35" class="edge"><title>multilingue&#45;&gt;bilingue</title>
<path fill="none" stroke="black" d="M539.979,-711.402C540.038,-711.393 540.097,-711.384 540.155,-711.376"/>
<polygon fill="black" stroke="black" points="530.96,-716.293 540.331,-711.349 529.922,-709.37 530.96,-716.293"/>
</g>
<!-- auteur\ndu\nmail -->
<g id="node46" class="node"><title>auteur\ndu\nmail</title>
<ellipse fill="none" stroke="black" cx="174.786" cy="-160" rx="44.0472" ry="43.8406"/>
<text text-anchor="middle" x="174.786" y="-174.4" font-family="Times Roman,serif" font-size="14.00">auteur</text>
<text text-anchor="middle" x="174.786" y="-156.4" font-family="Times Roman,serif" font-size="14.00">du</text>
<text text-anchor="middle" x="174.786" y="-138.4" font-family="Times Roman,serif" font-size="14.00">mail</text>
</g>
<!-- auteur\ndu\nmail&#45;&gt;thématique -->
<g id="edge37" class="edge"><title>auteur\ndu\nmail&#45;&gt;thématique</title>
<path fill="none" stroke="black" d="M198.248,-197.557C199.263,-199.183 200.274,-200.8 201.27,-202.394"/>
<polygon fill="black" stroke="black" points="198.489,-204.549 206.756,-211.176 204.426,-200.84 198.489,-204.549"/>
</g>
<!-- images -->
<g id="node48" class="node"><title>images</title>
<ellipse fill="none" stroke="black" cx="525.284" cy="-489.004" rx="45.9619" ry="18.3848"/>
<text text-anchor="middle" x="525.284" y="-485.404" font-family="Times Roman,serif" font-size="14.00">images</text>
</g>
<!-- sons -->
<g id="node50" class="node"><title>sons</title>
<ellipse fill="none" stroke="black" cx="468.144" cy="-442.101" rx="33.234" ry="18.3848"/>
<text text-anchor="middle" x="468.144" y="-438.501" font-family="Times Roman,serif" font-size="14.00">sons</text>
</g>
<!-- images&#45;&gt;sons -->
<g id="edge39" class="edge"><title>images&#45;&gt;sons</title>
<path fill="none" stroke="black" d="M504.978,-472.336C501.658,-469.611 498.175,-466.752 494.731,-463.924"/>
<polygon fill="black" stroke="black" points="496.809,-461.102 486.859,-457.463 492.368,-466.513 496.809,-461.102"/>
</g>
<!-- vidéos -->
<g id="node51" class="node"><title>vidéos</title>
<ellipse fill="none" stroke="black" cx="400.897" cy="-406.405" rx="41.9273" ry="18.3848"/>
<text text-anchor="middle" x="400.897" y="-402.805" font-family="Times Roman,serif" font-size="14.00">vidéos</text>
</g>
<!-- sons&#45;&gt;vidéos -->
<g id="edge40" class="edge"><title>sons&#45;&gt;vidéos</title>
<path fill="none" stroke="black" d="M443.866,-429.214C441.628,-428.026 439.329,-426.805 437.015,-425.577"/>
<polygon fill="black" stroke="black" points="438.577,-422.444 428.103,-420.847 435.295,-428.627 438.577,-422.444"/>
</g>
<!-- galerie -->
<g id="node52" class="node"><title>galerie</title>
<ellipse fill="none" stroke="black" cx="328.931" cy="-367.063" rx="44.0472" ry="18.3848"/>
<text text-anchor="middle" x="328.931" y="-363.463" font-family="Times Roman,serif" font-size="14.00">galerie</text>
</g>
<!-- vidéos&#45;&gt;galerie -->
<g id="edge41" class="edge"><title>vidéos&#45;&gt;galerie</title>
<path fill="none" stroke="black" d="M374.508,-391.979C371.364,-390.26 368.115,-388.484 364.866,-386.707"/>
<polygon fill="black" stroke="black" points="366.252,-383.477 355.799,-381.751 362.895,-389.619 366.252,-383.477"/>
</g>
<!-- galerie&#45;&gt;partenaire -->
<g id="edge42" class="edge"><title>galerie&#45;&gt;partenaire</title>
<path fill="none" stroke="black" d="M312.685,-349.48C305.641,-341.857 297.255,-332.78 289.538,-324.429"/>
<polygon fill="black" stroke="black" points="292.054,-321.994 282.697,-317.025 286.912,-326.745 292.054,-321.994"/>
</g>
<!-- newsletter\nd&#39;artiste -->
<g id="node54" class="node"><title>newsletter\nd&#39;artiste</title>
<ellipse fill="none" stroke="black" cx="687" cy="-32" rx="65.0538" ry="31.1127"/>
<text text-anchor="middle" x="687" y="-37.4" font-family="Times Roman,serif" font-size="14.00">newsletter</text>
<text text-anchor="middle" x="687" y="-19.4" font-family="Times Roman,serif" font-size="14.00">d&#39;artiste</text>
</g>
<!-- newsletter\nd&#39;artiste&#45;&gt;interne -->
<g id="edge45" class="edge"><title>newsletter\nd&#39;artiste&#45;&gt;interne</title>
<path fill="none" stroke="black" d="M697.857,-62.9102C698.902,-65.8841 699.958,-68.8908 700.993,-71.8386"/>
<polygon fill="black" stroke="black" points="697.771,-73.226 704.387,-81.501 704.375,-70.9062 697.771,-73.226"/>
</g>
<!-- newsletter\nextrapole -->
<g id="node56" class="node"><title>newsletter\nextrapole</title>
<ellipse fill="none" stroke="black" cx="66" cy="-32" rx="65.0538" ry="31.1127"/>
<text text-anchor="middle" x="66" y="-37.4" font-family="Times Roman,serif" font-size="14.00">newsletter</text>
<text text-anchor="middle" x="66" y="-19.4" font-family="Times Roman,serif" font-size="14.00">extrapole</text>
</g>
<!-- archive -->
<g id="node58" class="node"><title>archive</title>
<ellipse fill="none" stroke="black" cx="137.21" cy="-21.3609" rx="46.8775" ry="18.3848"/>
<text text-anchor="middle" x="137.21" y="-17.7609" font-family="Times Roman,serif" font-size="14.00">archive</text>
</g>
<!-- newsletter\nextrapole&#45;&gt;archive -->
<g id="edge47" class="edge"><title>newsletter\nextrapole&#45;&gt;archive</title>
<path fill="none" stroke="black" d="M128.191,-22.7083C128.277,-22.6955 128.362,-22.6828 128.447,-22.6701"/>
<polygon fill="black" stroke="black" points="119.328,-27.5749 128.7,-22.6323 118.291,-20.6517 119.328,-27.5749"/>
</g>
<!-- publication\nprécoce -->
<g id="node59" class="node"><title>publication\nprécoce</title>
<ellipse fill="none" stroke="black" cx="710" cy="-765.978" rx="65.0538" ry="31.1127"/>
<text text-anchor="middle" x="710" y="-771.378" font-family="Times Roman,serif" font-size="14.00">publication</text>
<text text-anchor="middle" x="710" y="-753.378" font-family="Times Roman,serif" font-size="14.00">précoce</text>
</g>
<!-- en\ncours -->
<g id="node61" class="node"><title>en\ncours</title>
<ellipse fill="none" stroke="black" cx="754.021" cy="-708.655" rx="36.977" ry="31.1127"/>
<text text-anchor="middle" x="754.021" y="-714.055" font-family="Times Roman,serif" font-size="14.00">en</text>
<text text-anchor="middle" x="754.021" y="-696.055" font-family="Times Roman,serif" font-size="14.00">cours</text>
</g>
<!-- publication\nprécoce&#45;&gt;en\ncours -->
<g id="edge49" class="edge"><title>publication\nprécoce&#45;&gt;en\ncours</title>
<path fill="none" stroke="black" d="M732.526,-736.644C732.632,-736.507 732.738,-736.369 732.843,-736.231"/>
<polygon fill="black" stroke="black" points="730.479,-745.057 733.794,-734.993 724.927,-740.793 730.479,-745.057"/>
</g>
<!-- finalisé -->
<g id="node62" class="node"><title>finalisé</title>
<ellipse fill="none" stroke="black" cx="778.125" cy="-640.5" rx="45.9619" ry="18.3848"/>
<text text-anchor="middle" x="778.125" y="-636.9" font-family="Times Roman,serif" font-size="14.00">finalisé</text>
</g>
<!-- en\ncours&#45;&gt;finalisé -->
<g id="edge50" class="edge"><title>en\ncours&#45;&gt;finalisé</title>
<path fill="none" stroke="black" d="M764.663,-678.563C765.849,-675.211 767.053,-671.806 768.228,-668.482"/>
<polygon fill="black" stroke="black" points="771.589,-669.477 771.624,-658.882 764.99,-667.143 771.589,-669.477"/>
</g>
</g>
</svg>
