<?xml version="1.0" encoding="UTF-8" standalone="no"?>
<!DOCTYPE svg PUBLIC "-//W3C//DTD SVG 1.1//EN"
 "http://www.w3.org/Graphics/SVG/1.1/DTD/svg11.dtd">
<!-- Generated by graphviz version 2.26.3 (20100126.1600)
 -->
<!-- Title: _anonymous_0 Pages: 1 -->
<svg width="1197pt" height="854pt"
 viewBox="0.00 0.00 1197.00 854.00" xmlns="http://www.w3.org/2000/svg" xmlns:xlink="http://www.w3.org/1999/xlink">
<g id="graph1" class="graph" transform="scale(1 1) rotate(0) translate(4 850)">
<title>_anonymous_0</title>
<polygon fill="white" stroke="white" points="-4,5 -4,-850 1194,-850 1194,5 -4,5"/>
<!-- partenaire -->
<g id="node1" class="node"><title>partenaire</title>
<ellipse fill="none" stroke="black" cx="240.557" cy="-285.279" rx="62.9325" ry="18.3848"/>
<text text-anchor="middle" x="240.557" y="-281.679" font-family="Times Roman,serif" font-size="14.00">partenaire</text>
</g>
<!-- thématique -->
<g id="node22" class="node"><title>thématique</title>
<ellipse fill="none" stroke="black" cx="207.095" cy="-233.798" rx="67.8823" ry="18.3848"/>
<text text-anchor="middle" x="207.095" y="-230.198" font-family="Times Roman,serif" font-size="14.00">thématique</text>
</g>
<!-- partenaire&#45;&gt;thématique -->
<g id="edge16" class="edge"><title>partenaire&#45;&gt;thématique</title>
<path fill="none" stroke="black" d="M228.665,-266.984C227.285,-264.86 225.856,-262.661 224.421,-260.454"/>
<polygon fill="black" stroke="black" points="227.333,-258.511 218.948,-252.034 221.464,-262.326 227.333,-258.511"/>
</g>
<!-- artiste -->
<g id="node53" class="node"><title>artiste</title>
<ellipse fill="none" stroke="black" cx="92.1682" cy="-363.89" rx="43.8406" ry="18.3848"/>
<text text-anchor="middle" x="92.1682" y="-360.29" font-family="Times Roman,serif" font-size="14.00">artiste</text>
</g>
<!-- partenaire&#45;&gt;artiste -->
<g id="edge43" class="edge"><title>partenaire&#45;&gt;artiste</title>
<path fill="none" stroke="black" d="M209.811,-301.568C186.325,-314.009 153.872,-331.202 128.999,-344.378"/>
<polygon fill="black" stroke="black" points="127.07,-341.439 119.872,-349.213 130.347,-347.625 127.07,-341.439"/>
</g>
<!-- dialogue\nlong -->
<g id="node2" class="node"><title>dialogue\nlong</title>
<ellipse fill="none" stroke="black" cx="581.483" cy="-292.731" rx="51.8276" ry="31.1127"/>
<text text-anchor="middle" x="581.483" y="-298.131" font-family="Times Roman,serif" font-size="14.00">dialogue</text>
<text text-anchor="middle" x="581.483" y="-280.131" font-family="Times Roman,serif" font-size="14.00">long</text>
</g>
<!-- historique -->
<g id="node4" class="node"><title>historique</title>
<ellipse fill="none" stroke="black" cx="660.92" cy="-235.128" rx="60.8112" ry="18.3848"/>
<text text-anchor="middle" x="660.92" y="-231.528" font-family="Times Roman,serif" font-size="14.00">historique</text>
</g>
<!-- dialogue\nlong&#45;&gt;historique -->
<g id="edge2" class="edge"><title>dialogue\nlong&#45;&gt;historique</title>
<path fill="none" stroke="black" d="M614.711,-268.636C619.388,-265.245 624.188,-261.764 628.843,-258.389"/>
<polygon fill="black" stroke="black" points="630.965,-261.173 637.006,-252.469 626.855,-255.506 630.965,-261.173"/>
</g>
<!-- délitement -->
<g id="node5" class="node"><title>délitement</title>
<ellipse fill="none" stroke="black" cx="658.444" cy="-184.505" rx="63.8479" ry="18.3848"/>
<text text-anchor="middle" x="658.444" y="-180.905" font-family="Times Roman,serif" font-size="14.00">délitement</text>
</g>
<!-- historique&#45;&gt;délitement -->
<g id="edge3" class="edge"><title>historique&#45;&gt;délitement</title>
<path fill="none" stroke="black" d="M660.012,-216.565C659.958,-215.465 659.904,-214.346 659.849,-213.218"/>
<polygon fill="black" stroke="black" points="663.336,-212.883 659.352,-203.066 656.345,-213.225 663.336,-212.883"/>
</g>
<!-- publié\nou\nnon -->
<g id="node6" class="node"><title>publié\nou\nnon</title>
<ellipse fill="none" stroke="black" cx="702.238" cy="-737.641" rx="41.0122" ry="43.8406"/>
<text text-anchor="middle" x="702.238" y="-752.041" font-family="Times Roman,serif" font-size="14.00">publié</text>
<text text-anchor="middle" x="702.238" y="-734.041" font-family="Times Roman,serif" font-size="14.00">ou</text>
<text text-anchor="middle" x="702.238" y="-716.041" font-family="Times Roman,serif" font-size="14.00">non</text>
</g>
<!-- nécessite\nanalyse -->
<g id="node7" class="node"><title>nécessite\nanalyse</title>
<ellipse fill="none" stroke="black" cx="242.728" cy="-127.994" rx="56.0679" ry="31.1127"/>
<text text-anchor="middle" x="242.728" y="-133.394" font-family="Times Roman,serif" font-size="14.00">nécessite</text>
<text text-anchor="middle" x="242.728" y="-115.394" font-family="Times Roman,serif" font-size="14.00">analyse</text>
</g>
<!-- extérieur -->
<g id="node9" class="node"><title>extérieur</title>
<ellipse fill="none" stroke="black" cx="354.044" cy="-228.624" rx="56.0679" ry="18.3848"/>
<text text-anchor="middle" x="354.044" y="-225.024" font-family="Times Roman,serif" font-size="14.00">extérieur</text>
</g>
<!-- nécessite\nanalyse&#45;&gt;extérieur -->
<g id="edge5" class="edge"><title>nécessite\nanalyse&#45;&gt;extérieur</title>
<path fill="none" stroke="black" d="M271.975,-154.433C289.025,-169.847 310.38,-189.152 327.032,-204.205"/>
<polygon fill="black" stroke="black" points="325.024,-207.108 334.789,-211.218 329.718,-201.915 325.024,-207.108"/>
</g>
<!-- extérieur&#45;&gt;partenaire -->
<g id="edge6" class="edge"><title>extérieur&#45;&gt;partenaire</title>
<path fill="none" stroke="black" d="M323.033,-244.105C310.342,-250.441 295.473,-257.864 281.881,-264.65"/>
<polygon fill="black" stroke="black" points="280.101,-261.626 272.717,-269.224 283.228,-267.889 280.101,-261.626"/>
</g>
<!-- signature -->
<g id="node10" class="node"><title>signature</title>
<ellipse fill="none" stroke="black" cx="256.678" cy="-695.879" rx="57.9828" ry="18.3848"/>
<text text-anchor="middle" x="256.678" y="-692.279" font-family="Times Roman,serif" font-size="14.00">signature</text>
</g>
<!-- header -->
<g id="node12" class="node"><title>header</title>
<ellipse fill="none" stroke="black" cx="369.591" cy="-679.01" rx="45.9619" ry="18.3848"/>
<text text-anchor="middle" x="369.591" y="-675.41" font-family="Times Roman,serif" font-size="14.00">header</text>
</g>
<!-- signature&#45;&gt;header -->
<g id="edge8" class="edge"><title>signature&#45;&gt;header</title>
<path fill="none" stroke="black" d="M309.498,-687.988C311.783,-687.646 314.076,-687.304 316.362,-686.962"/>
<polygon fill="black" stroke="black" points="316.92,-690.418 326.293,-685.479 315.885,-683.495 316.92,-690.418"/>
</g>
<!-- interne -->
<g id="node13" class="node"><title>interne</title>
<ellipse fill="none" stroke="black" cx="851.051" cy="-158.19" rx="46.8775" ry="18.3848"/>
<text text-anchor="middle" x="851.051" y="-154.59" font-family="Times Roman,serif" font-size="14.00">interne</text>
</g>
<!-- externe -->
<g id="node15" class="node"><title>externe</title>
<ellipse fill="none" stroke="black" cx="949.717" cy="-204.909" rx="50.2046" ry="18.3848"/>
<text text-anchor="middle" x="949.717" y="-201.309" font-family="Times Roman,serif" font-size="14.00">externe</text>
</g>
<!-- interne&#45;&gt;externe -->
<g id="edge10" class="edge"><title>interne&#45;&gt;externe</title>
<path fill="none" stroke="black" d="M881.19,-172.461C890.116,-176.687 900.035,-181.384 909.491,-185.862"/>
<polygon fill="black" stroke="black" points="908.204,-189.125 918.74,-190.241 911.2,-182.798 908.204,-189.125"/>
</g>
<!-- newsletter\ntierce -->
<g id="node16" class="node"><title>newsletter\ntierce</title>
<ellipse fill="none" stroke="black" cx="561.324" cy="-510.104" rx="65.0538" ry="31.1127"/>
<text text-anchor="middle" x="561.324" y="-515.504" font-family="Times Roman,serif" font-size="14.00">newsletter</text>
<text text-anchor="middle" x="561.324" y="-497.504" font-family="Times Roman,serif" font-size="14.00">tierce</text>
</g>
<!-- un\njournaliste\nécrit,\ndistance -->
<g id="node18" class="node"><title>un\njournaliste\nécrit,\ndistance</title>
<ellipse fill="none" stroke="black" cx="767.326" cy="-517.394" rx="62.9325" ry="56.5685"/>
<text text-anchor="middle" x="767.326" y="-540.794" font-family="Times Roman,serif" font-size="14.00">un</text>
<text text-anchor="middle" x="767.326" y="-522.794" font-family="Times Roman,serif" font-size="14.00">journaliste</text>
<text text-anchor="middle" x="767.326" y="-504.794" font-family="Times Roman,serif" font-size="14.00">écrit,</text>
<text text-anchor="middle" x="767.326" y="-486.794" font-family="Times Roman,serif" font-size="14.00">distance</text>
</g>
<!-- newsletter\ntierce&#45;&gt;un\njournaliste\nécrit,\ndistance -->
<g id="edge12" class="edge"><title>newsletter\ntierce&#45;&gt;un\njournaliste\nécrit,\ndistance</title>
<path fill="none" stroke="black" d="M626.222,-512.401C647.801,-513.164 671.978,-514.02 694.14,-514.804"/>
<polygon fill="black" stroke="black" points="694.047,-518.303 704.164,-515.159 694.294,-511.307 694.047,-518.303"/>
</g>
<!-- html -->
<g id="node19" class="node"><title>html</title>
<ellipse fill="none" stroke="black" cx="659.661" cy="-448.927" rx="33.9411" ry="18.3848"/>
<text text-anchor="middle" x="659.661" y="-445.327" font-family="Times Roman,serif" font-size="14.00">html</text>
</g>
<!-- un\njournaliste\nécrit,\ndistance&#45;&gt;html -->
<g id="edge13" class="edge"><title>un\njournaliste\nécrit,\ndistance&#45;&gt;html</title>
<path fill="none" stroke="black" d="M715.701,-484.564C707.074,-479.079 698.372,-473.545 690.483,-468.527"/>
<polygon fill="black" stroke="black" points="692.284,-465.525 681.967,-463.112 688.527,-471.432 692.284,-465.525"/>
</g>
<!-- pdf\nou\nlien -->
<g id="node20" class="node"><title>pdf\nou\nlien</title>
<ellipse fill="none" stroke="black" cx="664.237" cy="-579.43" rx="28.9914" ry="43.8406"/>
<text text-anchor="middle" x="664.237" y="-593.83" font-family="Times Roman,serif" font-size="14.00">pdf</text>
<text text-anchor="middle" x="664.237" y="-575.83" font-family="Times Roman,serif" font-size="14.00">ou</text>
<text text-anchor="middle" x="664.237" y="-557.83" font-family="Times Roman,serif" font-size="14.00">lien</text>
</g>
<!-- html&#45;&gt;pdf\nou\nlien -->
<g id="edge14" class="edge"><title>html&#45;&gt;pdf\nou\nlien</title>
<path fill="none" stroke="black" d="M660.317,-467.625C660.845,-482.698 661.616,-504.687 662.335,-525.184"/>
<polygon fill="black" stroke="black" points="658.845,-525.533 662.694,-535.404 665.841,-525.288 658.845,-525.533"/>
</g>
<!-- regard\nextérieur -->
<g id="node23" class="node"><title>regard\nextérieur</title>
<ellipse fill="none" stroke="black" cx="420.214" cy="-813.645" rx="56.0679" ry="31.1127"/>
<text text-anchor="middle" x="420.214" y="-819.045" font-family="Times Roman,serif" font-size="14.00">regard</text>
<text text-anchor="middle" x="420.214" y="-801.045" font-family="Times Roman,serif" font-size="14.00">extérieur</text>
</g>
<!-- feed&#45;back -->
<g id="node25" class="node"><title>feed&#45;back</title>
<ellipse fill="none" stroke="black" cx="549.169" cy="-760.748" rx="58.1882" ry="18.3848"/>
<text text-anchor="middle" x="549.169" y="-757.148" font-family="Times Roman,serif" font-size="14.00">feed&#45;back</text>
</g>
<!-- regard\nextérieur&#45;&gt;feed&#45;back -->
<g id="edge18" class="edge"><title>regard\nextérieur&#45;&gt;feed&#45;back</title>
<path fill="none" stroke="black" d="M465.316,-795.144C477.817,-790.016 491.39,-784.449 503.901,-779.317"/>
<polygon fill="black" stroke="black" points="505.303,-782.525 513.226,-775.492 502.646,-776.049 505.303,-782.525"/>
</g>
<!-- accord\nde\npublication\ndes\npartenaires -->
<g id="node26" class="node"><title>accord\nde\npublication\ndes\npartenaires</title>
<ellipse fill="none" stroke="black" cx="525.41" cy="-664.933" rx="67.1751" ry="69.2965"/>
<text text-anchor="middle" x="525.41" y="-697.333" font-family="Times Roman,serif" font-size="14.00">accord</text>
<text text-anchor="middle" x="525.41" y="-679.333" font-family="Times Roman,serif" font-size="14.00">de</text>
<text text-anchor="middle" x="525.41" y="-661.333" font-family="Times Roman,serif" font-size="14.00">publication</text>
<text text-anchor="middle" x="525.41" y="-643.333" font-family="Times Roman,serif" font-size="14.00">des</text>
<text text-anchor="middle" x="525.41" y="-625.333" font-family="Times Roman,serif" font-size="14.00">partenaires</text>
</g>
<!-- feed&#45;back&#45;&gt;accord\nde\npublication\ndes\npartenaires -->
<g id="edge19" class="edge"><title>feed&#45;back&#45;&gt;accord\nde\npublication\ndes\npartenaires</title>
<path fill="none" stroke="black" d="M544.588,-742.274C544.564,-742.179 544.541,-742.083 544.517,-741.988"/>
<polygon fill="black" stroke="black" points="547.957,-741.318 542.153,-732.454 541.163,-743.002 547.957,-741.318"/>
</g>
<!-- fiche\ntechnique -->
<g id="node27" class="node"><title>fiche\ntechnique</title>
<ellipse fill="none" stroke="black" cx="89.0497" cy="-778.795" rx="60.1041" ry="31.1127"/>
<text text-anchor="middle" x="89.0497" y="-784.195" font-family="Times Roman,serif" font-size="14.00">fiche</text>
<text text-anchor="middle" x="89.0497" y="-766.195" font-family="Times Roman,serif" font-size="14.00">technique</text>
</g>
<!-- espace\npublic -->
<g id="node29" class="node"><title>espace\npublic</title>
<ellipse fill="none" stroke="black" cx="134.954" cy="-615.514" rx="44.0472" ry="31.1127"/>
<text text-anchor="middle" x="134.954" y="-620.914" font-family="Times Roman,serif" font-size="14.00">espace</text>
<text text-anchor="middle" x="134.954" y="-602.914" font-family="Times Roman,serif" font-size="14.00">public</text>
</g>
<!-- fiche\ntechnique&#45;&gt;espace\npublic -->
<g id="edge21" class="edge"><title>fiche\ntechnique&#45;&gt;espace\npublic</title>
<path fill="none" stroke="black" d="M97.6839,-748.083C105.025,-721.97 115.62,-684.283 123.639,-655.761"/>
<polygon fill="black" stroke="black" points="127.021,-656.662 126.358,-646.088 120.282,-654.768 127.021,-656.662"/>
</g>
<!-- japon -->
<g id="node30" class="node"><title>japon</title>
<ellipse fill="none" stroke="black" cx="185.561" cy="-455.697" rx="38.1838" ry="18.3848"/>
<text text-anchor="middle" x="185.561" y="-452.097" font-family="Times Roman,serif" font-size="14.00">japon</text>
</g>
<!-- espace\npublic&#45;&gt;japon -->
<g id="edge22" class="edge"><title>espace\npublic&#45;&gt;japon</title>
<path fill="none" stroke="black" d="M144.592,-585.078C153.838,-555.879 167.684,-512.151 176.671,-483.77"/>
<polygon fill="black" stroke="black" points="180.063,-484.653 179.745,-474.063 173.389,-482.54 180.063,-484.653"/>
</g>
<!-- japon&#45;&gt;partenaire -->
<g id="edge23" class="edge"><title>japon&#45;&gt;partenaire</title>
<path fill="none" stroke="black" d="M191.551,-437.135C201.179,-407.299 220.162,-348.479 231.467,-313.447"/>
<polygon fill="black" stroke="black" points="234.833,-314.41 234.574,-303.819 228.172,-312.26 234.833,-314.41"/>
</g>
<!-- pdf\n+\ninfo\ndate\nlieu -->
<g id="node31" class="node"><title>pdf\n+\ninfo\ndate\nlieu</title>
<ellipse fill="none" stroke="black" cx="33.971" cy="-254.259" rx="33.234" ry="69.2965"/>
<text text-anchor="middle" x="33.971" y="-286.659" font-family="Times Roman,serif" font-size="14.00">pdf</text>
<text text-anchor="middle" x="33.971" y="-268.659" font-family="Times Roman,serif" font-size="14.00">+</text>
<text text-anchor="middle" x="33.971" y="-250.659" font-family="Times Roman,serif" font-size="14.00">info</text>
<text text-anchor="middle" x="33.971" y="-232.659" font-family="Times Roman,serif" font-size="14.00">date</text>
<text text-anchor="middle" x="33.971" y="-214.659" font-family="Times Roman,serif" font-size="14.00">lieu</text>
</g>
<!-- pdf\n+\ninfo\ndate\nlieu&#45;&gt;partenaire -->
<g id="edge25" class="edge"><title>pdf\n+\ninfo\ndate\nlieu&#45;&gt;partenaire</title>
<path fill="none" stroke="black" d="M67.1625,-259.243C95.8139,-263.545 138.09,-269.893 173.725,-275.244"/>
<polygon fill="black" stroke="black" points="173.655,-278.773 184.064,-276.796 174.694,-271.85 173.655,-278.773"/>
</g>
<!-- partenaires\npotentiels -->
<g id="node33" class="node"><title>partenaires\npotentiels</title>
<ellipse fill="none" stroke="black" cx="959.446" cy="-285.902" rx="67.1751" ry="31.1127"/>
<text text-anchor="middle" x="959.446" y="-291.302" font-family="Times Roman,serif" font-size="14.00">partenaires</text>
<text text-anchor="middle" x="959.446" y="-273.302" font-family="Times Roman,serif" font-size="14.00">potentiels</text>
</g>
<!-- communauté\nd&#39;esprit -->
<g id="node35" class="node"><title>communauté\nd&#39;esprit</title>
<ellipse fill="none" stroke="black" cx="1112.82" cy="-262.987" rx="75.1594" ry="31.1127"/>
<text text-anchor="middle" x="1112.82" y="-268.387" font-family="Times Roman,serif" font-size="14.00">communauté</text>
<text text-anchor="middle" x="1112.82" y="-250.387" font-family="Times Roman,serif" font-size="14.00">d&#39;esprit</text>
</g>
<!-- partenaires\npotentiels&#45;&gt;communauté\nd&#39;esprit -->
<g id="edge27" class="edge"><title>partenaires\npotentiels&#45;&gt;communauté\nd&#39;esprit</title>
<path fill="none" stroke="black" d="M1023.6,-276.317C1026.36,-275.905 1029.13,-275.491 1031.91,-275.075"/>
<polygon fill="black" stroke="black" points="1032.62,-278.509 1041.99,-273.569 1031.58,-271.585 1032.62,-278.509"/>
</g>
<!-- diagramme -->
<g id="node36" class="node"><title>diagramme</title>
<ellipse fill="none" stroke="black" cx="759.613" cy="-817.885" rx="65.7609" ry="18.3848"/>
<text text-anchor="middle" x="759.613" y="-814.285" font-family="Times Roman,serif" font-size="14.00">diagramme</text>
</g>
<!-- cartographie -->
<g id="node38" class="node"><title>cartographie</title>
<ellipse fill="none" stroke="black" cx="856.12" cy="-771.299" rx="73.0388" ry="18.3848"/>
<text text-anchor="middle" x="856.12" y="-767.699" font-family="Times Roman,serif" font-size="14.00">cartographie</text>
</g>
<!-- diagramme&#45;&gt;cartographie -->
<g id="edge29" class="edge"><title>diagramme&#45;&gt;cartographie</title>
<path fill="none" stroke="black" d="M792.825,-801.853C799.273,-798.741 806.118,-795.436 812.834,-792.194"/>
<polygon fill="black" stroke="black" points="814.378,-795.336 821.862,-787.837 811.335,-789.032 814.378,-795.336"/>
</g>
<!-- orienté\nà partir\nd&#39;un point\nde vue -->
<g id="node39" class="node"><title>orienté\nà partir\nd&#39;un point\nde vue</title>
<ellipse fill="none" stroke="black" cx="844.397" cy="-684.418" rx="60.8112" ry="56.5685"/>
<text text-anchor="middle" x="844.397" y="-707.818" font-family="Times Roman,serif" font-size="14.00">orienté</text>
<text text-anchor="middle" x="844.397" y="-689.818" font-family="Times Roman,serif" font-size="14.00">à partir</text>
<text text-anchor="middle" x="844.397" y="-671.818" font-family="Times Roman,serif" font-size="14.00">d&#39;un point</text>
<text text-anchor="middle" x="844.397" y="-653.818" font-family="Times Roman,serif" font-size="14.00">de vue</text>
</g>
<!-- cartographie&#45;&gt;orienté\nà partir\nd&#39;un point\nde vue -->
<g id="edge30" class="edge"><title>cartographie&#45;&gt;orienté\nà partir\nd&#39;un point\nde vue</title>
<path fill="none" stroke="black" d="M853.576,-752.448C853.499,-751.87 853.419,-751.285 853.339,-750.691"/>
<polygon fill="black" stroke="black" points="856.768,-749.929 851.962,-740.487 849.831,-750.865 856.768,-749.929"/>
</g>
<!-- évènement -->
<g id="node40" class="node"><title>évènement</title>
<ellipse fill="none" stroke="black" cx="441.734" cy="-113.296" rx="67.1751" ry="18.3848"/>
<text text-anchor="middle" x="441.734" y="-109.696" font-family="Times Roman,serif" font-size="14.00">évènement</text>
</g>
<!-- agenda -->
<g id="node42" class="node"><title>agenda</title>
<ellipse fill="none" stroke="black" cx="375.864" cy="-163.562" rx="46.8775" ry="18.3848"/>
<text text-anchor="middle" x="375.864" y="-159.962" font-family="Times Roman,serif" font-size="14.00">agenda</text>
</g>
<!-- évènement&#45;&gt;agenda -->
<g id="edge32" class="edge"><title>évènement&#45;&gt;agenda</title>
<path fill="none" stroke="black" d="M418.696,-130.877C414.536,-134.051 410.144,-137.403 405.821,-140.702"/>
<polygon fill="black" stroke="black" points="403.498,-138.072 397.672,-146.921 407.745,-143.636 403.498,-138.072"/>
</g>
<!-- agenda&#45;&gt;partenaire -->
<g id="edge33" class="edge"><title>agenda&#45;&gt;partenaire</title>
<path fill="none" stroke="black" d="M356.765,-180.743C333.659,-201.529 294.582,-236.68 268.19,-260.421"/>
<polygon fill="black" stroke="black" points="265.533,-258.104 260.439,-267.394 270.214,-263.308 265.533,-258.104"/>
</g>
<!-- multilingue -->
<g id="node43" class="node"><title>multilingue</title>
<ellipse fill="none" stroke="black" cx="529.947" cy="-39.1838" rx="65.9683" ry="18.3848"/>
<text text-anchor="middle" x="529.947" y="-35.5838" font-family="Times Roman,serif" font-size="14.00">multilingue</text>
</g>
<!-- bilingue -->
<g id="node45" class="node"><title>bilingue</title>
<ellipse fill="none" stroke="black" cx="660.322" cy="-19.7051" rx="50.2046" ry="18.3848"/>
<text text-anchor="middle" x="660.322" y="-16.1051" font-family="Times Roman,serif" font-size="14.00">bilingue</text>
</g>
<!-- multilingue&#45;&gt;bilingue -->
<g id="edge35" class="edge"><title>multilingue&#45;&gt;bilingue</title>
<path fill="none" stroke="black" d="M588.27,-30.47C593.343,-29.7121 598.471,-28.9459 603.53,-28.19"/>
<polygon fill="black" stroke="black" points="604.407,-31.598 613.78,-26.6587 603.372,-24.6749 604.407,-31.598"/>
</g>
<!-- auteur\ndu\nmail -->
<g id="node46" class="node"><title>auteur\ndu\nmail</title>
<ellipse fill="none" stroke="black" cx="132.025" cy="-45.3881" rx="44.0472" ry="43.8406"/>
<text text-anchor="middle" x="132.025" y="-59.7881" font-family="Times Roman,serif" font-size="14.00">auteur</text>
<text text-anchor="middle" x="132.025" y="-41.7881" font-family="Times Roman,serif" font-size="14.00">du</text>
<text text-anchor="middle" x="132.025" y="-23.7881" font-family="Times Roman,serif" font-size="14.00">mail</text>
</g>
<!-- auteur\ndu\nmail&#45;&gt;thématique -->
<g id="edge37" class="edge"><title>auteur\ndu\nmail&#45;&gt;thématique</title>
<path fill="none" stroke="black" d="M148.314,-86.2702C162.711,-122.404 183.327,-174.144 195.929,-205.772"/>
<polygon fill="black" stroke="black" points="192.768,-207.295 199.721,-215.289 199.271,-204.704 192.768,-207.295"/>
</g>
<!-- images -->
<g id="node48" class="node"><title>images</title>
<ellipse fill="none" stroke="black" cx="872.842" cy="-366.89" rx="45.9619" ry="18.3848"/>
<text text-anchor="middle" x="872.842" y="-363.29" font-family="Times Roman,serif" font-size="14.00">images</text>
</g>
<!-- sons -->
<g id="node50" class="node"><title>sons</title>
<ellipse fill="none" stroke="black" cx="741.493" cy="-363.264" rx="33.234" ry="18.3848"/>
<text text-anchor="middle" x="741.493" y="-359.664" font-family="Times Roman,serif" font-size="14.00">sons</text>
</g>
<!-- images&#45;&gt;sons -->
<g id="edge39" class="edge"><title>images&#45;&gt;sons</title>
<path fill="none" stroke="black" d="M826.902,-365.622C813.225,-365.244 798.29,-364.832 784.788,-364.459"/>
<polygon fill="black" stroke="black" points="784.879,-360.961 774.786,-364.183 784.686,-367.958 784.879,-360.961"/>
</g>
<!-- vidéos -->
<g id="node51" class="node"><title>vidéos</title>
<ellipse fill="none" stroke="black" cx="589.526" cy="-354.321" rx="41.9273" ry="18.3848"/>
<text text-anchor="middle" x="589.526" y="-350.721" font-family="Times Roman,serif" font-size="14.00">vidéos</text>
</g>
<!-- sons&#45;&gt;vidéos -->
<g id="edge40" class="edge"><title>sons&#45;&gt;vidéos</title>
<path fill="none" stroke="black" d="M708.518,-361.324C689,-360.175 663.837,-358.694 641.68,-357.39"/>
<polygon fill="black" stroke="black" points="641.603,-353.88 631.414,-356.786 641.192,-360.868 641.603,-353.88"/>
</g>
<!-- galerie -->
<g id="node52" class="node"><title>galerie</title>
<ellipse fill="none" stroke="black" cx="430.829" cy="-336.014" rx="44.0472" ry="18.3848"/>
<text text-anchor="middle" x="430.829" y="-332.414" font-family="Times Roman,serif" font-size="14.00">galerie</text>
</g>
<!-- vidéos&#45;&gt;galerie -->
<g id="edge41" class="edge"><title>vidéos&#45;&gt;galerie</title>
<path fill="none" stroke="black" d="M548.657,-349.606C528.848,-347.321 504.816,-344.549 483.636,-342.105"/>
<polygon fill="black" stroke="black" points="483.834,-338.605 473.499,-340.936 483.032,-345.559 483.834,-338.605"/>
</g>
<!-- galerie&#45;&gt;partenaire -->
<g id="edge42" class="edge"><title>galerie&#45;&gt;partenaire</title>
<path fill="none" stroke="black" d="M393.237,-325.99C365.874,-318.694 328.337,-308.685 297.33,-300.417"/>
<polygon fill="black" stroke="black" points="298.078,-296.995 287.514,-297.8 296.275,-303.758 298.078,-296.995"/>
</g>
<!-- newsletter\nd&#39;artiste -->
<g id="node54" class="node"><title>newsletter\nd&#39;artiste</title>
<ellipse fill="none" stroke="black" cx="857.568" cy="-98.0302" rx="65.0538" ry="31.1127"/>
<text text-anchor="middle" x="857.568" y="-103.43" font-family="Times Roman,serif" font-size="14.00">newsletter</text>
<text text-anchor="middle" x="857.568" y="-85.4302" font-family="Times Roman,serif" font-size="14.00">d&#39;artiste</text>
</g>
<!-- newsletter\nd&#39;artiste&#45;&gt;interne -->
<g id="edge45" class="edge"><title>newsletter\nd&#39;artiste&#45;&gt;interne</title>
<path fill="none" stroke="black" d="M854.195,-129.167C854.183,-129.278 854.171,-129.39 854.159,-129.501"/>
<polygon fill="black" stroke="black" points="850.665,-129.256 853.067,-139.575 857.624,-130.01 850.665,-129.256"/>
</g>
<!-- newsletter\nextrapole -->
<g id="node56" class="node"><title>newsletter\nextrapole</title>
<ellipse fill="none" stroke="black" cx="956.847" cy="-433.75" rx="65.0538" ry="31.1127"/>
<text text-anchor="middle" x="956.847" y="-439.15" font-family="Times Roman,serif" font-size="14.00">newsletter</text>
<text text-anchor="middle" x="956.847" y="-421.15" font-family="Times Roman,serif" font-size="14.00">extrapole</text>
</g>
<!-- archive -->
<g id="node58" class="node"><title>archive</title>
<ellipse fill="none" stroke="black" cx="1081.42" cy="-415.138" rx="46.8775" ry="18.3848"/>
<text text-anchor="middle" x="1081.42" y="-411.538" font-family="Times Roman,serif" font-size="14.00">archive</text>
</g>
<!-- newsletter\nextrapole&#45;&gt;archive -->
<g id="edge47" class="edge"><title>newsletter\nextrapole&#45;&gt;archive</title>
<path fill="none" stroke="black" d="M1019.13,-424.444C1021.8,-424.047 1024.46,-423.649 1027.1,-423.255"/>
<polygon fill="black" stroke="black" points="1027.78,-426.692 1037.15,-421.753 1026.74,-419.769 1027.78,-426.692"/>
</g>
<!-- publication\nprécoce -->
<g id="node59" class="node"><title>publication\nprécoce</title>
<ellipse fill="none" stroke="black" cx="296.815" cy="-573.098" rx="65.0538" ry="31.1127"/>
<text text-anchor="middle" x="296.815" y="-578.498" font-family="Times Roman,serif" font-size="14.00">publication</text>
<text text-anchor="middle" x="296.815" y="-560.498" font-family="Times Roman,serif" font-size="14.00">précoce</text>
</g>
<!-- en\ncours -->
<g id="node61" class="node"><title>en\ncours</title>
<ellipse fill="none" stroke="black" cx="412.887" cy="-509.714" rx="36.977" ry="31.1127"/>
<text text-anchor="middle" x="412.887" y="-515.114" font-family="Times Roman,serif" font-size="14.00">en</text>
<text text-anchor="middle" x="412.887" y="-497.114" font-family="Times Roman,serif" font-size="14.00">cours</text>
</g>
<!-- publication\nprécoce&#45;&gt;en\ncours -->
<g id="edge49" class="edge"><title>publication\nprécoce&#45;&gt;en\ncours</title>
<path fill="none" stroke="black" d="M339.706,-549.676C350.495,-543.785 362.035,-537.483 372.686,-531.667"/>
<polygon fill="black" stroke="black" points="374.678,-534.567 381.777,-526.702 371.323,-528.423 374.678,-534.567"/>
</g>
<!-- finalisé -->
<g id="node62" class="node"><title>finalisé</title>
<ellipse fill="none" stroke="black" cx="400.66" cy="-448.02" rx="45.9619" ry="18.3848"/>
<text text-anchor="middle" x="400.66" y="-444.42" font-family="Times Roman,serif" font-size="14.00">finalisé</text>
</g>
<!-- en\ncours&#45;&gt;finalisé -->
<g id="edge50" class="edge"><title>en\ncours&#45;&gt;finalisé</title>
<path fill="none" stroke="black" d="M406.774,-478.867C406.617,-478.076 406.46,-477.285 406.304,-476.497"/>
<polygon fill="black" stroke="black" points="409.706,-475.659 404.328,-466.53 402.839,-477.02 409.706,-475.659"/>
</g>
</g>
</svg>
