<?xml version="1.0" encoding="UTF-8" standalone="no"?>
<!DOCTYPE svg PUBLIC "-//W3C//DTD SVG 1.1//EN"
 "http://www.w3.org/Graphics/SVG/1.1/DTD/svg11.dtd">
<!-- Generated by graphviz version 2.26.3 (20100126.1600)
 -->
<!-- Title: _anonymous_0 Pages: 1 -->
<svg width="683pt" height="568pt"
 viewBox="0.00 0.00 683.33 568.00" xmlns="http://www.w3.org/2000/svg" xmlns:xlink="http://www.w3.org/1999/xlink">
<g id="graph1" class="graph" transform="scale(1 1) rotate(0) translate(4 564)">
<title>_anonymous_0</title>
<polygon fill="white" stroke="white" points="-4,5 -4,-564 680.328,-564 680.328,5 -4,5"/>
<!-- dialogue\nlong -->
<g id="node1" class="node"><title>dialogue\nlong</title>
<ellipse fill="none" stroke="black" cx="563.828" cy="-272" rx="51.8276" ry="31.1127"/>
<text text-anchor="middle" x="563.828" y="-277.4" font-family="Times Roman,serif" font-size="14.00">dialogue</text>
<text text-anchor="middle" x="563.828" y="-259.4" font-family="Times Roman,serif" font-size="14.00">long</text>
</g>
<!-- historique -->
<g id="node3" class="node"><title>historique</title>
<ellipse fill="none" stroke="black" cx="524.535" cy="-272" rx="60.8112" ry="18.3848"/>
<text text-anchor="middle" x="524.535" y="-268.4" font-family="Times Roman,serif" font-size="14.00">historique</text>
</g>
<!-- dialogue\nlong&#45;&gt;historique -->
<g id="edge2" class="edge"><title>dialogue\nlong&#45;&gt;historique</title>
<path fill="none" stroke="black" d="M524.648,-272C524.629,-272 524.613,-272 524.599,-272"/>
<polygon fill="black" stroke="black" points="534.573,-268.528 524.563,-272 534.554,-275.528 534.573,-268.528"/>
</g>
<!-- délitement -->
<g id="node4" class="node"><title>délitement</title>
<ellipse fill="none" stroke="black" cx="481.5" cy="-272" rx="63.8479" ry="18.3848"/>
<text text-anchor="middle" x="481.5" y="-268.4" font-family="Times Roman,serif" font-size="14.00">délitement</text>
</g>
<!-- historique&#45;&gt;délitement -->
<g id="edge3" class="edge"><title>historique&#45;&gt;délitement</title>
<path fill="none" stroke="black" d="M481.623,-272C481.603,-272 481.585,-272 481.57,-272"/>
<polygon fill="black" stroke="black" points="491.54,-268.526 481.531,-272 491.522,-275.526 491.54,-268.526"/>
</g>
<!-- publié\nou\nnon -->
<g id="node5" class="node"><title>publié\nou\nnon</title>
<ellipse fill="none" stroke="black" cx="42" cy="-429" rx="41.0122" ry="43.8406"/>
<text text-anchor="middle" x="42" y="-443.4" font-family="Times Roman,serif" font-size="14.00">publié</text>
<text text-anchor="middle" x="42" y="-425.4" font-family="Times Roman,serif" font-size="14.00">ou</text>
<text text-anchor="middle" x="42" y="-407.4" font-family="Times Roman,serif" font-size="14.00">non</text>
</g>
<!-- nécessite\nanalyse -->
<g id="node6" class="node"><title>nécessite\nanalyse</title>
<ellipse fill="none" stroke="black" cx="217.251" cy="-295.514" rx="56.0679" ry="31.1127"/>
<text text-anchor="middle" x="217.251" y="-300.914" font-family="Times Roman,serif" font-size="14.00">nécessite</text>
<text text-anchor="middle" x="217.251" y="-282.914" font-family="Times Roman,serif" font-size="14.00">analyse</text>
</g>
<!-- extérieur -->
<g id="node8" class="node"><title>extérieur</title>
<ellipse fill="none" stroke="black" cx="227.777" cy="-275.508" rx="56.0679" ry="18.3848"/>
<text text-anchor="middle" x="227.777" y="-271.908" font-family="Times Roman,serif" font-size="14.00">extérieur</text>
</g>
<!-- nécessite\nanalyse&#45;&gt;extérieur -->
<g id="edge5" class="edge"><title>nécessite\nanalyse&#45;&gt;extérieur</title>
<path fill="none" stroke="black" d="M227.747,-275.566C227.752,-275.556 227.756,-275.548 227.76,-275.541"/>
<polygon fill="black" stroke="black" points="226.186,-286.017 227.769,-275.523 219.987,-282.739 226.186,-286.017"/>
</g>
<!-- partenaire -->
<g id="node9" class="node"><title>partenaire</title>
<ellipse fill="none" stroke="black" cx="245.502" cy="-251.741" rx="62.9325" ry="18.3848"/>
<text text-anchor="middle" x="245.502" y="-248.141" font-family="Times Roman,serif" font-size="14.00">partenaire</text>
</g>
<!-- extérieur&#45;&gt;partenaire -->
<g id="edge6" class="edge"><title>extérieur&#45;&gt;partenaire</title>
<path fill="none" stroke="black" d="M241.391,-257.254C241.428,-257.204 241.465,-257.154 241.502,-257.105"/>
<polygon fill="black" stroke="black" points="238.438,-267.068 241.612,-256.957 232.826,-262.881 238.438,-267.068"/>
</g>
<!-- thématique -->
<g id="node22" class="node"><title>thématique</title>
<ellipse fill="none" stroke="black" cx="267.921" cy="-272.098" rx="67.8823" ry="18.3848"/>
<text text-anchor="middle" x="267.921" y="-268.498" font-family="Times Roman,serif" font-size="14.00">thématique</text>
</g>
<!-- partenaire&#45;&gt;thématique -->
<g id="edge16" class="edge"><title>partenaire&#45;&gt;thématique</title>
<path fill="none" stroke="black" d="M265.172,-269.602C265.224,-269.649 265.276,-269.696 265.327,-269.743"/>
<polygon fill="black" stroke="black" points="255.721,-265.748 265.479,-269.881 260.428,-260.565 255.721,-265.748"/>
</g>
<!-- artiste -->
<g id="node53" class="node"><title>artiste</title>
<ellipse fill="none" stroke="black" cx="247.604" cy="-271.482" rx="43.8406" ry="18.3848"/>
<text text-anchor="middle" x="247.604" y="-267.882" font-family="Times Roman,serif" font-size="14.00">artiste</text>
</g>
<!-- partenaire&#45;&gt;artiste -->
<g id="edge43" class="edge"><title>partenaire&#45;&gt;artiste</title>
<path fill="none" stroke="black" d="M247.491,-270.42C247.509,-270.588 247.525,-270.738 247.539,-270.869"/>
<polygon fill="black" stroke="black" points="243.033,-261.63 247.575,-271.203 249.993,-260.887 243.033,-261.63"/>
</g>
<!-- signature -->
<g id="node10" class="node"><title>signature</title>
<ellipse fill="none" stroke="black" cx="103.321" cy="-19.5" rx="57.9828" ry="18.3848"/>
<text text-anchor="middle" x="103.321" y="-15.9" font-family="Times Roman,serif" font-size="14.00">signature</text>
</g>
<!-- header -->
<g id="node12" class="node"><title>header</title>
<ellipse fill="none" stroke="black" cx="47" cy="-19.5" rx="45.9619" ry="18.3848"/>
<text text-anchor="middle" x="47" y="-15.9" font-family="Times Roman,serif" font-size="14.00">header</text>
</g>
<!-- signature&#45;&gt;header -->
<g id="edge8" class="edge"><title>signature&#45;&gt;header</title>
<path fill="none" stroke="black" d="M47.1616,-19.5C47.1349,-19.5 47.1115,-19.5 47.0914,-19.5"/>
<polygon fill="black" stroke="black" points="57.0477,-16.0197 47.0408,-19.5 57.0339,-23.0197 57.0477,-16.0197"/>
</g>
<!-- interne -->
<g id="node13" class="node"><title>interne</title>
<ellipse fill="none" stroke="black" cx="171.975" cy="-96" rx="46.8775" ry="18.3848"/>
<text text-anchor="middle" x="171.975" y="-92.4" font-family="Times Roman,serif" font-size="14.00">interne</text>
</g>
<!-- externe -->
<g id="node15" class="node"><title>externe</title>
<ellipse fill="none" stroke="black" cx="229.645" cy="-96" rx="50.2046" ry="18.3848"/>
<text text-anchor="middle" x="229.645" y="-92.4" font-family="Times Roman,serif" font-size="14.00">externe</text>
</g>
<!-- interne&#45;&gt;externe -->
<g id="edge10" class="edge"><title>interne&#45;&gt;externe</title>
<path fill="none" stroke="black" d="M219.067,-96C219.116,-96 219.165,-96 219.214,-96"/>
<polygon fill="black" stroke="black" points="209.362,-99.5069 219.359,-96 209.357,-92.5069 209.362,-99.5069"/>
</g>
<!-- newsletter\ntierce -->
<g id="node16" class="node"><title>newsletter\ntierce</title>
<ellipse fill="none" stroke="black" cx="492.875" cy="-153.5" rx="65.0538" ry="31.1127"/>
<text text-anchor="middle" x="492.875" y="-158.9" font-family="Times Roman,serif" font-size="14.00">newsletter</text>
<text text-anchor="middle" x="492.875" y="-140.9" font-family="Times Roman,serif" font-size="14.00">tierce</text>
</g>
<!-- un\njournaliste\nécrit,\ndistance -->
<g id="node18" class="node"><title>un\njournaliste\nécrit,\ndistance</title>
<ellipse fill="none" stroke="black" cx="456.086" cy="-153.5" rx="62.9325" ry="56.5685"/>
<text text-anchor="middle" x="456.086" y="-176.9" font-family="Times Roman,serif" font-size="14.00">un</text>
<text text-anchor="middle" x="456.086" y="-158.9" font-family="Times Roman,serif" font-size="14.00">journaliste</text>
<text text-anchor="middle" x="456.086" y="-140.9" font-family="Times Roman,serif" font-size="14.00">écrit,</text>
<text text-anchor="middle" x="456.086" y="-122.9" font-family="Times Roman,serif" font-size="14.00">distance</text>
</g>
<!-- newsletter\ntierce&#45;&gt;un\njournaliste\nécrit,\ndistance -->
<g id="edge12" class="edge"><title>newsletter\ntierce&#45;&gt;un\njournaliste\nécrit,\ndistance</title>
<path fill="none" stroke="black" d="M456.192,-153.5C456.174,-153.5 456.159,-153.5 456.146,-153.5"/>
<polygon fill="black" stroke="black" points="466.124,-150.03 456.113,-153.5 466.102,-157.03 466.124,-150.03"/>
</g>
<!-- html -->
<g id="node19" class="node"><title>html</title>
<ellipse fill="none" stroke="black" cx="417.069" cy="-153.5" rx="33.9411" ry="18.3848"/>
<text text-anchor="middle" x="417.069" y="-149.9" font-family="Times Roman,serif" font-size="14.00">html</text>
</g>
<!-- un\njournaliste\nécrit,\ndistance&#45;&gt;html -->
<g id="edge13" class="edge"><title>un\njournaliste\nécrit,\ndistance&#45;&gt;html</title>
<path fill="none" stroke="black" d="M417.181,-153.5C417.163,-153.5 417.147,-153.5 417.133,-153.5"/>
<polygon fill="black" stroke="black" points="427.108,-150.028 417.098,-153.5 427.088,-157.028 427.108,-150.028"/>
</g>
<!-- pdf\nou\nlien -->
<g id="node20" class="node"><title>pdf\nou\nlien</title>
<ellipse fill="none" stroke="black" cx="382" cy="-153.5" rx="28.9914" ry="43.8406"/>
<text text-anchor="middle" x="382" y="-167.9" font-family="Times Roman,serif" font-size="14.00">pdf</text>
<text text-anchor="middle" x="382" y="-149.9" font-family="Times Roman,serif" font-size="14.00">ou</text>
<text text-anchor="middle" x="382" y="-131.9" font-family="Times Roman,serif" font-size="14.00">lien</text>
</g>
<!-- html&#45;&gt;pdf\nou\nlien -->
<g id="edge14" class="edge"><title>html&#45;&gt;pdf\nou\nlien</title>
<path fill="none" stroke="black" d="M382.867,-153.5C382.727,-153.5 382.603,-153.5 382.496,-153.5"/>
<polygon fill="black" stroke="black" points="392.225,-150.004 382.224,-153.5 392.223,-157.004 392.225,-150.004"/>
</g>
<!-- regard\nextérieur -->
<g id="node23" class="node"><title>regard\nextérieur</title>
<ellipse fill="none" stroke="black" cx="502.328" cy="-390.5" rx="56.0679" ry="31.1127"/>
<text text-anchor="middle" x="502.328" y="-395.9" font-family="Times Roman,serif" font-size="14.00">regard</text>
<text text-anchor="middle" x="502.328" y="-377.9" font-family="Times Roman,serif" font-size="14.00">extérieur</text>
</g>
<!-- feed&#45;back -->
<g id="node25" class="node"><title>feed&#45;back</title>
<ellipse fill="none" stroke="black" cx="463.035" cy="-390.5" rx="58.1882" ry="18.3848"/>
<text text-anchor="middle" x="463.035" y="-386.9" font-family="Times Roman,serif" font-size="14.00">feed&#45;back</text>
</g>
<!-- regard\nextérieur&#45;&gt;feed&#45;back -->
<g id="edge18" class="edge"><title>regard\nextérieur&#45;&gt;feed&#45;back</title>
<path fill="none" stroke="black" d="M463.148,-390.5C463.129,-390.5 463.113,-390.5 463.099,-390.5"/>
<polygon fill="black" stroke="black" points="473.073,-387.028 463.063,-390.5 473.054,-394.028 473.073,-387.028"/>
</g>
<!-- accord\nde\npublication\ndes\npartenaires -->
<g id="node26" class="node"><title>accord\nde\npublication\ndes\npartenaires</title>
<ellipse fill="none" stroke="black" cx="420" cy="-390.5" rx="67.1751" ry="69.2965"/>
<text text-anchor="middle" x="420" y="-422.9" font-family="Times Roman,serif" font-size="14.00">accord</text>
<text text-anchor="middle" x="420" y="-404.9" font-family="Times Roman,serif" font-size="14.00">de</text>
<text text-anchor="middle" x="420" y="-386.9" font-family="Times Roman,serif" font-size="14.00">publication</text>
<text text-anchor="middle" x="420" y="-368.9" font-family="Times Roman,serif" font-size="14.00">des</text>
<text text-anchor="middle" x="420" y="-350.9" font-family="Times Roman,serif" font-size="14.00">partenaires</text>
</g>
<!-- feed&#45;back&#45;&gt;accord\nde\npublication\ndes\npartenaires -->
<g id="edge19" class="edge"><title>feed&#45;back&#45;&gt;accord\nde\npublication\ndes\npartenaires</title>
<path fill="none" stroke="black" d="M420.123,-390.5C420.103,-390.5 420.085,-390.5 420.07,-390.5"/>
<polygon fill="black" stroke="black" points="430.04,-387.026 420.031,-390.5 430.022,-394.026 430.04,-387.026"/>
</g>
<!-- fiche\ntechnique -->
<g id="node27" class="node"><title>fiche\ntechnique</title>
<ellipse fill="none" stroke="black" cx="265.797" cy="-176" rx="60.1041" ry="31.1127"/>
<text text-anchor="middle" x="265.797" y="-181.4" font-family="Times Roman,serif" font-size="14.00">fiche</text>
<text text-anchor="middle" x="265.797" y="-163.4" font-family="Times Roman,serif" font-size="14.00">technique</text>
</g>
<!-- espace\npublic -->
<g id="node29" class="node"><title>espace\npublic</title>
<ellipse fill="none" stroke="black" cx="260.344" cy="-196.588" rx="44.0472" ry="31.1127"/>
<text text-anchor="middle" x="260.344" y="-201.988" font-family="Times Roman,serif" font-size="14.00">espace</text>
<text text-anchor="middle" x="260.344" y="-183.988" font-family="Times Roman,serif" font-size="14.00">public</text>
</g>
<!-- fiche\ntechnique&#45;&gt;espace\npublic -->
<g id="edge21" class="edge"><title>fiche\ntechnique&#45;&gt;espace\npublic</title>
<path fill="none" stroke="black" d="M260.36,-196.529C260.357,-196.539 260.355,-196.548 260.353,-196.555"/>
<polygon fill="black" stroke="black" points="259.563,-185.995 260.348,-196.573 266.331,-187.815 259.563,-185.995"/>
</g>
<!-- japon -->
<g id="node30" class="node"><title>japon</title>
<ellipse fill="none" stroke="black" cx="253.967" cy="-221.586" rx="38.1838" ry="18.3848"/>
<text text-anchor="middle" x="253.967" y="-217.986" font-family="Times Roman,serif" font-size="14.00">japon</text>
</g>
<!-- espace\npublic&#45;&gt;japon -->
<g id="edge22" class="edge"><title>espace\npublic&#45;&gt;japon</title>
<path fill="none" stroke="black" d="M253.985,-221.515C253.982,-221.526 253.979,-221.537 253.977,-221.546"/>
<polygon fill="black" stroke="black" points="253.084,-211.001 253.971,-221.568 259.868,-212.754 253.084,-211.001"/>
</g>
<!-- japon&#45;&gt;partenaire -->
<g id="edge23" class="edge"><title>japon&#45;&gt;partenaire</title>
<path fill="none" stroke="black" d="M248.751,-240.169C248.737,-240.217 248.723,-240.266 248.71,-240.314"/>
<polygon fill="black" stroke="black" points="248.007,-229.883 248.669,-240.459 254.746,-231.779 248.007,-229.883"/>
</g>
<!-- pdf\n+\ninfo\ndate\nlieu -->
<g id="node31" class="node"><title>pdf\n+\ninfo\ndate\nlieu</title>
<ellipse fill="none" stroke="black" cx="234.382" cy="-234.666" rx="33.234" ry="69.2965"/>
<text text-anchor="middle" x="234.382" y="-267.066" font-family="Times Roman,serif" font-size="14.00">pdf</text>
<text text-anchor="middle" x="234.382" y="-249.066" font-family="Times Roman,serif" font-size="14.00">+</text>
<text text-anchor="middle" x="234.382" y="-231.066" font-family="Times Roman,serif" font-size="14.00">info</text>
<text text-anchor="middle" x="234.382" y="-213.066" font-family="Times Roman,serif" font-size="14.00">date</text>
<text text-anchor="middle" x="234.382" y="-195.066" font-family="Times Roman,serif" font-size="14.00">lieu</text>
</g>
<!-- pdf\n+\ninfo\ndate\nlieu&#45;&gt;partenaire -->
<g id="edge25" class="edge"><title>pdf\n+\ninfo\ndate\nlieu&#45;&gt;partenaire</title>
<path fill="none" stroke="black" d="M245.47,-251.692C245.475,-251.701 245.48,-251.708 245.484,-251.714"/>
<polygon fill="black" stroke="black" points="237.076,-245.259 245.494,-251.729 242.948,-241.422 237.076,-245.259"/>
</g>
<!-- partenaires\npotentiels -->
<g id="node33" class="node"><title>partenaires\npotentiels</title>
<ellipse fill="none" stroke="black" cx="452.821" cy="-32" rx="67.1751" ry="31.1127"/>
<text text-anchor="middle" x="452.821" y="-37.4" font-family="Times Roman,serif" font-size="14.00">partenaires</text>
<text text-anchor="middle" x="452.821" y="-19.4" font-family="Times Roman,serif" font-size="14.00">potentiels</text>
</g>
<!-- communauté\nd&#39;esprit -->
<g id="node35" class="node"><title>communauté\nd&#39;esprit</title>
<ellipse fill="none" stroke="black" cx="396.5" cy="-32" rx="75.1594" ry="31.1127"/>
<text text-anchor="middle" x="396.5" y="-37.4" font-family="Times Roman,serif" font-size="14.00">communauté</text>
<text text-anchor="middle" x="396.5" y="-19.4" font-family="Times Roman,serif" font-size="14.00">d&#39;esprit</text>
</g>
<!-- partenaires\npotentiels&#45;&gt;communauté\nd&#39;esprit -->
<g id="edge27" class="edge"><title>partenaires\npotentiels&#45;&gt;communauté\nd&#39;esprit</title>
<path fill="none" stroke="black" d="M396.662,-32C396.635,-32 396.612,-32 396.591,-32"/>
<polygon fill="black" stroke="black" points="406.548,-28.5197 396.541,-32 406.534,-35.5197 406.548,-28.5197"/>
</g>
<!-- diagramme -->
<g id="node36" class="node"><title>diagramme</title>
<ellipse fill="none" stroke="black" cx="256.328" cy="-425.5" rx="65.7609" ry="18.3848"/>
<text text-anchor="middle" x="256.328" y="-421.9" font-family="Times Roman,serif" font-size="14.00">diagramme</text>
</g>
<!-- cartographie -->
<g id="node38" class="node"><title>cartographie</title>
<ellipse fill="none" stroke="black" cx="217.035" cy="-425.5" rx="73.0388" ry="18.3848"/>
<text text-anchor="middle" x="217.035" y="-421.9" font-family="Times Roman,serif" font-size="14.00">cartographie</text>
</g>
<!-- diagramme&#45;&gt;cartographie -->
<g id="edge29" class="edge"><title>diagramme&#45;&gt;cartographie</title>
<path fill="none" stroke="black" d="M217.148,-425.5C217.129,-425.5 217.113,-425.5 217.099,-425.5"/>
<polygon fill="black" stroke="black" points="227.073,-422.028 217.063,-425.5 227.054,-429.028 227.073,-422.028"/>
</g>
<!-- orienté\nà partir\nd&#39;un point\nde vue -->
<g id="node39" class="node"><title>orienté\nà partir\nd&#39;un point\nde vue</title>
<ellipse fill="none" stroke="black" cx="174" cy="-425.5" rx="60.8112" ry="56.5685"/>
<text text-anchor="middle" x="174" y="-448.9" font-family="Times Roman,serif" font-size="14.00">orienté</text>
<text text-anchor="middle" x="174" y="-430.9" font-family="Times Roman,serif" font-size="14.00">à partir</text>
<text text-anchor="middle" x="174" y="-412.9" font-family="Times Roman,serif" font-size="14.00">d&#39;un point</text>
<text text-anchor="middle" x="174" y="-394.9" font-family="Times Roman,serif" font-size="14.00">de vue</text>
</g>
<!-- cartographie&#45;&gt;orienté\nà partir\nd&#39;un point\nde vue -->
<g id="edge30" class="edge"><title>cartographie&#45;&gt;orienté\nà partir\nd&#39;un point\nde vue</title>
<path fill="none" stroke="black" d="M174.123,-425.5C174.103,-425.5 174.085,-425.5 174.07,-425.5"/>
<polygon fill="black" stroke="black" points="184.04,-422.026 174.031,-425.5 184.022,-429.026 184.04,-422.026"/>
</g>
<!-- évènement -->
<g id="node40" class="node"><title>évènement</title>
<ellipse fill="none" stroke="black" cx="295.083" cy="-240.389" rx="67.1751" ry="18.3848"/>
<text text-anchor="middle" x="295.083" y="-236.789" font-family="Times Roman,serif" font-size="14.00">évènement</text>
</g>
<!-- agenda -->
<g id="node42" class="node"><title>agenda</title>
<ellipse fill="none" stroke="black" cx="272.894" cy="-244.873" rx="46.8775" ry="18.3848"/>
<text text-anchor="middle" x="272.894" y="-241.273" font-family="Times Roman,serif" font-size="14.00">agenda</text>
</g>
<!-- évènement&#45;&gt;agenda -->
<g id="edge32" class="edge"><title>évènement&#45;&gt;agenda</title>
<path fill="none" stroke="black" d="M272.957,-244.86C272.947,-244.862 272.938,-244.864 272.93,-244.866"/>
<polygon fill="black" stroke="black" points="282.006,-239.419 272.91,-244.87 283.42,-246.281 282.006,-239.419"/>
</g>
<!-- agenda&#45;&gt;partenaire -->
<g id="edge33" class="edge"><title>agenda&#45;&gt;partenaire</title>
<path fill="none" stroke="black" d="M245.581,-251.722C245.568,-251.725 245.556,-251.728 245.546,-251.73"/>
<polygon fill="black" stroke="black" points="254.361,-245.879 245.522,-251.736 256.084,-252.67 254.361,-245.879"/>
</g>
<!-- multilingue -->
<g id="node43" class="node"><title>multilingue</title>
<ellipse fill="none" stroke="black" cx="171.321" cy="-531.5" rx="65.9683" ry="18.3848"/>
<text text-anchor="middle" x="171.321" y="-527.9" font-family="Times Roman,serif" font-size="14.00">multilingue</text>
</g>
<!-- bilingue -->
<g id="node45" class="node"><title>bilingue</title>
<ellipse fill="none" stroke="black" cx="115" cy="-531.5" rx="50.2046" ry="18.3848"/>
<text text-anchor="middle" x="115" y="-527.9" font-family="Times Roman,serif" font-size="14.00">bilingue</text>
</g>
<!-- multilingue&#45;&gt;bilingue -->
<g id="edge35" class="edge"><title>multilingue&#45;&gt;bilingue</title>
<path fill="none" stroke="black" d="M115.162,-531.5C115.135,-531.5 115.112,-531.5 115.091,-531.5"/>
<polygon fill="black" stroke="black" points="125.048,-528.02 115.041,-531.5 125.034,-535.02 125.048,-528.02"/>
</g>
<!-- auteur\ndu\nmail -->
<g id="node46" class="node"><title>auteur\ndu\nmail</title>
<ellipse fill="none" stroke="black" cx="283.279" cy="-288.853" rx="44.0472" ry="43.8406"/>
<text text-anchor="middle" x="283.279" y="-303.253" font-family="Times Roman,serif" font-size="14.00">auteur</text>
<text text-anchor="middle" x="283.279" y="-285.253" font-family="Times Roman,serif" font-size="14.00">du</text>
<text text-anchor="middle" x="283.279" y="-267.253" font-family="Times Roman,serif" font-size="14.00">mail</text>
</g>
<!-- auteur\ndu\nmail&#45;&gt;thématique -->
<g id="edge37" class="edge"><title>auteur\ndu\nmail&#45;&gt;thématique</title>
<path fill="none" stroke="black" d="M267.965,-272.146C267.958,-272.138 267.951,-272.131 267.946,-272.125"/>
<polygon fill="black" stroke="black" points="277.289,-277.124 267.932,-272.11 272.12,-281.865 277.289,-277.124"/>
</g>
<!-- images -->
<g id="node48" class="node"><title>images</title>
<ellipse fill="none" stroke="black" cx="143" cy="-233.361" rx="45.9619" ry="18.3848"/>
<text text-anchor="middle" x="143" y="-229.761" font-family="Times Roman,serif" font-size="14.00">images</text>
</g>
<!-- sons -->
<g id="node50" class="node"><title>sons</title>
<ellipse fill="none" stroke="black" cx="163.25" cy="-237.044" rx="33.234" ry="18.3848"/>
<text text-anchor="middle" x="163.25" y="-233.444" font-family="Times Roman,serif" font-size="14.00">sons</text>
</g>
<!-- images&#45;&gt;sons -->
<g id="edge39" class="edge"><title>images&#45;&gt;sons</title>
<path fill="none" stroke="black" d="M163.192,-237.034C163.201,-237.035 163.21,-237.037 163.217,-237.038"/>
<polygon fill="black" stroke="black" points="152.754,-238.652 163.235,-237.042 154.038,-231.764 152.754,-238.652"/>
</g>
<!-- vidéos -->
<g id="node51" class="node"><title>vidéos</title>
<ellipse fill="none" stroke="black" cx="186.815" cy="-241.385" rx="41.9273" ry="18.3848"/>
<text text-anchor="middle" x="186.815" y="-237.785" font-family="Times Roman,serif" font-size="14.00">vidéos</text>
</g>
<!-- sons&#45;&gt;vidéos -->
<g id="edge40" class="edge"><title>sons&#45;&gt;vidéos</title>
<path fill="none" stroke="black" d="M186.748,-241.372C186.759,-241.374 186.769,-241.376 186.777,-241.378"/>
<polygon fill="black" stroke="black" points="176.316,-242.975 186.798,-241.382 177.61,-236.09 176.316,-242.975"/>
</g>
<!-- galerie -->
<g id="node52" class="node"><title>galerie</title>
<ellipse fill="none" stroke="black" cx="213.525" cy="-246.514" rx="44.0472" ry="18.3848"/>
<text text-anchor="middle" x="213.525" y="-242.914" font-family="Times Roman,serif" font-size="14.00">galerie</text>
</g>
<!-- vidéos&#45;&gt;galerie -->
<g id="edge41" class="edge"><title>vidéos&#45;&gt;galerie</title>
<path fill="none" stroke="black" d="M213.448,-246.499C213.461,-246.501 213.472,-246.503 213.482,-246.505"/>
<polygon fill="black" stroke="black" points="203.013,-248.028 213.506,-246.51 204.356,-241.154 203.013,-248.028"/>
</g>
<!-- galerie&#45;&gt;partenaire -->
<g id="edge42" class="edge"><title>galerie&#45;&gt;partenaire</title>
<path fill="none" stroke="black" d="M245.41,-251.726C245.425,-251.729 245.439,-251.731 245.45,-251.733"/>
<polygon fill="black" stroke="black" points="235.035,-253.55 245.479,-251.738 236.184,-246.641 235.035,-253.55"/>
</g>
<!-- newsletter\nd&#39;artiste -->
<g id="node54" class="node"><title>newsletter\nd&#39;artiste</title>
<ellipse fill="none" stroke="black" cx="114" cy="-96" rx="65.0538" ry="31.1127"/>
<text text-anchor="middle" x="114" y="-101.4" font-family="Times Roman,serif" font-size="14.00">newsletter</text>
<text text-anchor="middle" x="114" y="-83.4" font-family="Times Roman,serif" font-size="14.00">d&#39;artiste</text>
</g>
<!-- newsletter\nd&#39;artiste&#45;&gt;interne -->
<g id="edge45" class="edge"><title>newsletter\nd&#39;artiste&#45;&gt;interne</title>
<path fill="none" stroke="black" d="M171.809,-96C171.836,-96 171.86,-96 171.881,-96"/>
<polygon fill="black" stroke="black" points="161.94,-99.5192 171.933,-96 161.926,-92.5192 161.94,-99.5192"/>
</g>
<!-- newsletter\nextrapole -->
<g id="node56" class="node"><title>newsletter\nextrapole</title>
<ellipse fill="none" stroke="black" cx="376.821" cy="-528" rx="65.0538" ry="31.1127"/>
<text text-anchor="middle" x="376.821" y="-533.4" font-family="Times Roman,serif" font-size="14.00">newsletter</text>
<text text-anchor="middle" x="376.821" y="-515.4" font-family="Times Roman,serif" font-size="14.00">extrapole</text>
</g>
<!-- archive -->
<g id="node58" class="node"><title>archive</title>
<ellipse fill="none" stroke="black" cx="320.5" cy="-528" rx="46.8775" ry="18.3848"/>
<text text-anchor="middle" x="320.5" y="-524.4" font-family="Times Roman,serif" font-size="14.00">archive</text>
</g>
<!-- newsletter\nextrapole&#45;&gt;archive -->
<g id="edge47" class="edge"><title>newsletter\nextrapole&#45;&gt;archive</title>
<path fill="none" stroke="black" d="M320.662,-528C320.635,-528 320.612,-528 320.591,-528"/>
<polygon fill="black" stroke="black" points="330.548,-524.52 320.541,-528 330.534,-531.52 330.548,-524.52"/>
</g>
<!-- publication\nprécoce -->
<g id="node59" class="node"><title>publication\nprécoce</title>
<ellipse fill="none" stroke="black" cx="609.328" cy="-512" rx="65.0538" ry="31.1127"/>
<text text-anchor="middle" x="609.328" y="-517.4" font-family="Times Roman,serif" font-size="14.00">publication</text>
<text text-anchor="middle" x="609.328" y="-499.4" font-family="Times Roman,serif" font-size="14.00">précoce</text>
</g>
<!-- en\ncours -->
<g id="node61" class="node"><title>en\ncours</title>
<ellipse fill="none" stroke="black" cx="570.035" cy="-512" rx="36.977" ry="31.1127"/>
<text text-anchor="middle" x="570.035" y="-517.4" font-family="Times Roman,serif" font-size="14.00">en</text>
<text text-anchor="middle" x="570.035" y="-499.4" font-family="Times Roman,serif" font-size="14.00">cours</text>
</g>
<!-- publication\nprécoce&#45;&gt;en\ncours -->
<g id="edge49" class="edge"><title>publication\nprécoce&#45;&gt;en\ncours</title>
<path fill="none" stroke="black" d="M570.148,-512C570.129,-512 570.113,-512 570.099,-512"/>
<polygon fill="black" stroke="black" points="580.073,-508.528 570.063,-512 580.054,-515.528 580.073,-508.528"/>
</g>
<!-- finalisé -->
<g id="node62" class="node"><title>finalisé</title>
<ellipse fill="none" stroke="black" cx="527" cy="-512" rx="45.9619" ry="18.3848"/>
<text text-anchor="middle" x="527" y="-508.4" font-family="Times Roman,serif" font-size="14.00">finalisé</text>
</g>
<!-- en\ncours&#45;&gt;finalisé -->
<g id="edge50" class="edge"><title>en\ncours&#45;&gt;finalisé</title>
<path fill="none" stroke="black" d="M532.984,-512C532.927,-512 532.871,-512 532.815,-512"/>
<polygon fill="black" stroke="black" points="542.65,-508.506 532.648,-512 542.646,-515.506 542.65,-508.506"/>
</g>
</g>
</svg>
